<mxfile host="app.diagrams.net" agent="Mozilla/5.0 (Windows NT 10.0; Win64; x64) AppleWebKit/537.36 (KHTML, like Gecko) Chrome/135.0.0.0 Safari/537.36" version="26.2.12" pages="3">
  <diagram name="UNet" id="-l2ZRphNvVD4a5xKm08P">
    <mxGraphModel dx="1113" dy="477" grid="1" gridSize="10" guides="1" tooltips="1" connect="1" arrows="1" fold="1" page="1" pageScale="1" pageWidth="850" pageHeight="1100" math="0" shadow="0">
      <root>
        <mxCell id="0" />
        <mxCell id="1" parent="0" />
        <mxCell id="ud2SsmbYOo2Kuwl3UFZl-1" value="" style="group" vertex="1" connectable="0" parent="1">
          <mxGeometry x="310" y="49" width="580" height="487" as="geometry" />
        </mxCell>
        <mxCell id="cbb_1Zwi02tE8ZavCeOP-53" value="" style="group" vertex="1" connectable="0" parent="ud2SsmbYOo2Kuwl3UFZl-1">
          <mxGeometry y="81" width="90" height="101" as="geometry" />
        </mxCell>
        <mxCell id="cbb_1Zwi02tE8ZavCeOP-48" value="Conv Block" style="text;html=1;align=center;verticalAlign=middle;whiteSpace=wrap;rounded=0;fontStyle=1" vertex="1" parent="cbb_1Zwi02tE8ZavCeOP-53">
          <mxGeometry x="10" width="70" height="20" as="geometry" />
        </mxCell>
        <mxCell id="cbb_1Zwi02tE8ZavCeOP-50" value="" style="group" vertex="1" connectable="0" parent="cbb_1Zwi02tE8ZavCeOP-53">
          <mxGeometry x="5" y="27" width="80" height="69" as="geometry" />
        </mxCell>
        <mxCell id="cbb_1Zwi02tE8ZavCeOP-43" value="&lt;span style=&quot;font-weight: normal;&quot;&gt;&lt;font style=&quot;font-size: 12px;&quot;&gt;Conv2D (3x3)&lt;/font&gt;&lt;/span&gt;" style="whiteSpace=wrap;html=1;rounded=1;fillColor=#fff2cc;strokeColor=#d6b656;fontStyle=1;fontSize=10;" vertex="1" parent="cbb_1Zwi02tE8ZavCeOP-50">
          <mxGeometry width="80" height="20" as="geometry" />
        </mxCell>
        <mxCell id="cbb_1Zwi02tE8ZavCeOP-45" value="&lt;span style=&quot;font-weight: normal;&quot;&gt;&lt;font style=&quot;font-size: 12px;&quot;&gt;ReLU&lt;/font&gt;&lt;/span&gt;" style="whiteSpace=wrap;html=1;rounded=1;fillColor=#e1d5e7;strokeColor=#9673a6;fontStyle=1;fontSize=10;" vertex="1" parent="cbb_1Zwi02tE8ZavCeOP-50">
          <mxGeometry y="49" width="80" height="20" as="geometry" />
        </mxCell>
        <mxCell id="cbb_1Zwi02tE8ZavCeOP-46" value="&lt;font style=&quot;font-size: 12px; font-weight: normal;&quot;&gt;Batch Norm&lt;/font&gt;" style="whiteSpace=wrap;html=1;rounded=1;fillColor=#d5e8d4;strokeColor=#82b366;fontStyle=1;fontSize=10;" vertex="1" parent="cbb_1Zwi02tE8ZavCeOP-50">
          <mxGeometry y="24" width="80" height="20" as="geometry" />
        </mxCell>
        <mxCell id="cbb_1Zwi02tE8ZavCeOP-52" value="" style="rounded=0;whiteSpace=wrap;html=1;strokeColor=light-dark(#fb0909, #ededed);fillColor=none;dashed=1;strokeWidth=1.2;" vertex="1" parent="cbb_1Zwi02tE8ZavCeOP-53">
          <mxGeometry y="22" width="90" height="79" as="geometry" />
        </mxCell>
        <mxCell id="yBtOJm4Ljxpj48C1zi7a-15" value="Decoder" style="text;html=1;align=center;verticalAlign=middle;whiteSpace=wrap;rounded=0;fontStyle=1" vertex="1" parent="ud2SsmbYOo2Kuwl3UFZl-1">
          <mxGeometry x="449.5" y="209" width="70" height="20" as="geometry" />
        </mxCell>
        <mxCell id="yBtOJm4Ljxpj48C1zi7a-49" value="" style="group" vertex="1" connectable="0" parent="ud2SsmbYOo2Kuwl3UFZl-1">
          <mxGeometry x="47.5" width="532.5" height="487" as="geometry" />
        </mxCell>
        <mxCell id="cbb_1Zwi02tE8ZavCeOP-3" value="" style="edgeStyle=orthogonalEdgeStyle;rounded=0;orthogonalLoop=1;jettySize=auto;html=1;fontSize=10;" edge="1" parent="yBtOJm4Ljxpj48C1zi7a-49" source="cbb_1Zwi02tE8ZavCeOP-4">
          <mxGeometry relative="1" as="geometry">
            <mxPoint x="122.5" y="86" as="targetPoint" />
          </mxGeometry>
        </mxCell>
        <mxCell id="cbb_1Zwi02tE8ZavCeOP-4" value="&lt;font&gt;Input&lt;/font&gt;" style="rounded=1;whiteSpace=wrap;html=1;fillColor=#f5f5f5;fontColor=#333333;strokeColor=#666666;" vertex="1" parent="yBtOJm4Ljxpj48C1zi7a-49">
          <mxGeometry x="87.5" y="42" width="70" height="24" as="geometry" />
        </mxCell>
        <mxCell id="cbb_1Zwi02tE8ZavCeOP-106" value="&lt;font style=&quot;&quot;&gt;Conv Block&lt;/font&gt;" style="rounded=1;whiteSpace=wrap;html=1;fillColor=#f8cecc;strokeColor=#b85450;" vertex="1" parent="yBtOJm4Ljxpj48C1zi7a-49">
          <mxGeometry x="88.5" y="197" width="70" height="20" as="geometry" />
        </mxCell>
        <mxCell id="yBtOJm4Ljxpj48C1zi7a-9" style="edgeStyle=orthogonalEdgeStyle;rounded=0;orthogonalLoop=1;jettySize=auto;html=1;exitX=0.5;exitY=1;exitDx=0;exitDy=0;entryX=0.5;entryY=0;entryDx=0;entryDy=0;" edge="1" parent="yBtOJm4Ljxpj48C1zi7a-49" source="cbb_1Zwi02tE8ZavCeOP-107" target="cbb_1Zwi02tE8ZavCeOP-111">
          <mxGeometry relative="1" as="geometry" />
        </mxCell>
        <mxCell id="yBtOJm4Ljxpj48C1zi7a-40" style="edgeStyle=orthogonalEdgeStyle;rounded=0;orthogonalLoop=1;jettySize=auto;html=1;exitX=0.5;exitY=1;exitDx=0;exitDy=0;entryX=0;entryY=0.5;entryDx=0;entryDy=0;" edge="1" parent="yBtOJm4Ljxpj48C1zi7a-49">
          <mxGeometry relative="1" as="geometry">
            <mxPoint x="123.5" y="241" as="sourcePoint" />
            <mxPoint x="294.75" y="190.5" as="targetPoint" />
            <Array as="points">
              <mxPoint x="123.5" y="250" />
              <mxPoint x="235.5" y="250" />
              <mxPoint x="235.5" y="191" />
            </Array>
          </mxGeometry>
        </mxCell>
        <mxCell id="cbb_1Zwi02tE8ZavCeOP-107" value="&lt;font style=&quot;&quot;&gt;Max Pooling (2x2)&lt;/font&gt;" style="rounded=1;whiteSpace=wrap;html=1;fillColor=#b1ddf0;strokeColor=#10739e;" vertex="1" parent="yBtOJm4Ljxpj48C1zi7a-49">
          <mxGeometry x="71" y="219" width="105" height="23" as="geometry" />
        </mxCell>
        <mxCell id="cbb_1Zwi02tE8ZavCeOP-108" value="&lt;font style=&quot;&quot;&gt;Conv Block&lt;/font&gt;" style="rounded=1;whiteSpace=wrap;html=1;fillColor=#f8cecc;strokeColor=#b85450;" vertex="1" parent="yBtOJm4Ljxpj48C1zi7a-49">
          <mxGeometry x="88.5" y="175" width="70" height="20" as="geometry" />
        </mxCell>
        <mxCell id="cbb_1Zwi02tE8ZavCeOP-109" value="&lt;font style=&quot;&quot;&gt;Conv Block&lt;/font&gt;" style="rounded=1;whiteSpace=wrap;html=1;fillColor=#f8cecc;strokeColor=#b85450;" vertex="1" parent="yBtOJm4Ljxpj48C1zi7a-49">
          <mxGeometry x="88.5" y="284" width="70" height="20" as="geometry" />
        </mxCell>
        <mxCell id="yBtOJm4Ljxpj48C1zi7a-10" style="edgeStyle=orthogonalEdgeStyle;rounded=0;orthogonalLoop=1;jettySize=auto;html=1;exitX=0.5;exitY=1;exitDx=0;exitDy=0;entryX=0.5;entryY=0;entryDx=0;entryDy=0;" edge="1" parent="yBtOJm4Ljxpj48C1zi7a-49" source="cbb_1Zwi02tE8ZavCeOP-110" target="cbb_1Zwi02tE8ZavCeOP-114">
          <mxGeometry relative="1" as="geometry" />
        </mxCell>
        <mxCell id="yBtOJm4Ljxpj48C1zi7a-35" style="edgeStyle=orthogonalEdgeStyle;rounded=0;orthogonalLoop=1;jettySize=auto;html=1;exitX=0.5;exitY=1;exitDx=0;exitDy=0;entryX=0;entryY=0.5;entryDx=0;entryDy=0;" edge="1" parent="yBtOJm4Ljxpj48C1zi7a-49">
          <mxGeometry relative="1" as="geometry">
            <mxPoint x="123.5" y="331" as="sourcePoint" />
            <mxPoint x="295" y="287.5" as="targetPoint" />
            <Array as="points">
              <mxPoint x="123.5" y="333" />
              <mxPoint x="235.5" y="333" />
              <mxPoint x="235.5" y="288" />
            </Array>
          </mxGeometry>
        </mxCell>
        <mxCell id="cbb_1Zwi02tE8ZavCeOP-110" value="&lt;font style=&quot;&quot;&gt;Max Pooling (2x2)&lt;/font&gt;" style="rounded=1;whiteSpace=wrap;html=1;fillColor=#b1ddf0;strokeColor=#10739e;" vertex="1" parent="yBtOJm4Ljxpj48C1zi7a-49">
          <mxGeometry x="71" y="306" width="105" height="23" as="geometry" />
        </mxCell>
        <mxCell id="cbb_1Zwi02tE8ZavCeOP-111" value="&lt;font style=&quot;&quot;&gt;Conv Block&lt;/font&gt;" style="rounded=1;whiteSpace=wrap;html=1;fillColor=#f8cecc;strokeColor=#b85450;" vertex="1" parent="yBtOJm4Ljxpj48C1zi7a-49">
          <mxGeometry x="88.5" y="262" width="70" height="20" as="geometry" />
        </mxCell>
        <mxCell id="cbb_1Zwi02tE8ZavCeOP-112" value="&lt;font style=&quot;&quot;&gt;Conv Block&lt;/font&gt;" style="rounded=1;whiteSpace=wrap;html=1;fillColor=#f8cecc;strokeColor=#b85450;" vertex="1" parent="yBtOJm4Ljxpj48C1zi7a-49">
          <mxGeometry x="87.5" y="370.5" width="70" height="20" as="geometry" />
        </mxCell>
        <mxCell id="cbb_1Zwi02tE8ZavCeOP-133" style="edgeStyle=orthogonalEdgeStyle;rounded=0;orthogonalLoop=1;jettySize=auto;html=1;exitX=0.5;exitY=1;exitDx=0;exitDy=0;entryX=0.5;entryY=0;entryDx=0;entryDy=0;" edge="1" parent="yBtOJm4Ljxpj48C1zi7a-49" source="cbb_1Zwi02tE8ZavCeOP-113" target="cbb_1Zwi02tE8ZavCeOP-129">
          <mxGeometry relative="1" as="geometry" />
        </mxCell>
        <mxCell id="yBtOJm4Ljxpj48C1zi7a-29" style="edgeStyle=orthogonalEdgeStyle;rounded=0;orthogonalLoop=1;jettySize=auto;html=1;exitX=0.5;exitY=1;exitDx=0;exitDy=0;entryX=0;entryY=0.5;entryDx=0;entryDy=0;" edge="1" parent="yBtOJm4Ljxpj48C1zi7a-49" source="cbb_1Zwi02tE8ZavCeOP-113" target="yBtOJm4Ljxpj48C1zi7a-17">
          <mxGeometry relative="1" as="geometry">
            <Array as="points">
              <mxPoint x="122.5" y="421" />
              <mxPoint x="182.5" y="421" />
              <mxPoint x="182.5" y="380" />
            </Array>
          </mxGeometry>
        </mxCell>
        <mxCell id="cbb_1Zwi02tE8ZavCeOP-113" value="&lt;font style=&quot;&quot;&gt;Max Pooling (2x2)&lt;/font&gt;" style="rounded=1;whiteSpace=wrap;html=1;fillColor=#b1ddf0;strokeColor=#10739e;" vertex="1" parent="yBtOJm4Ljxpj48C1zi7a-49">
          <mxGeometry x="70" y="392.5" width="105" height="23" as="geometry" />
        </mxCell>
        <mxCell id="cbb_1Zwi02tE8ZavCeOP-114" value="&lt;font style=&quot;&quot;&gt;Conv Block&lt;/font&gt;" style="rounded=1;whiteSpace=wrap;html=1;fillColor=#f8cecc;strokeColor=#b85450;" vertex="1" parent="yBtOJm4Ljxpj48C1zi7a-49">
          <mxGeometry x="87.5" y="348.5" width="70" height="20" as="geometry" />
        </mxCell>
        <mxCell id="cbb_1Zwi02tE8ZavCeOP-134" value="Encoder" style="text;html=1;align=center;verticalAlign=middle;whiteSpace=wrap;rounded=0;fontStyle=1" vertex="1" parent="yBtOJm4Ljxpj48C1zi7a-49">
          <mxGeometry y="238" width="70" height="20" as="geometry" />
        </mxCell>
        <mxCell id="cbb_1Zwi02tE8ZavCeOP-102" value="&lt;font style=&quot;&quot;&gt;Conv Block&lt;/font&gt;" style="rounded=1;whiteSpace=wrap;html=1;fillColor=#f8cecc;strokeColor=#b85450;" vertex="1" parent="yBtOJm4Ljxpj48C1zi7a-49">
          <mxGeometry x="88.5" y="109" width="70" height="20" as="geometry" />
        </mxCell>
        <mxCell id="yBtOJm4Ljxpj48C1zi7a-8" style="edgeStyle=orthogonalEdgeStyle;rounded=0;orthogonalLoop=1;jettySize=auto;html=1;exitX=0.5;exitY=1;exitDx=0;exitDy=0;entryX=0.5;entryY=0;entryDx=0;entryDy=0;" edge="1" parent="yBtOJm4Ljxpj48C1zi7a-49" source="cbb_1Zwi02tE8ZavCeOP-103" target="cbb_1Zwi02tE8ZavCeOP-108">
          <mxGeometry relative="1" as="geometry" />
        </mxCell>
        <mxCell id="yBtOJm4Ljxpj48C1zi7a-45" style="edgeStyle=orthogonalEdgeStyle;rounded=0;orthogonalLoop=1;jettySize=auto;html=1;exitX=0.5;exitY=1;exitDx=0;exitDy=0;entryX=0;entryY=0.5;entryDx=0;entryDy=0;" edge="1" parent="yBtOJm4Ljxpj48C1zi7a-49" source="cbb_1Zwi02tE8ZavCeOP-103" target="yBtOJm4Ljxpj48C1zi7a-42">
          <mxGeometry relative="1" as="geometry">
            <Array as="points">
              <mxPoint x="123.5" y="161" />
              <mxPoint x="235.5" y="161" />
              <mxPoint x="235.5" y="98" />
            </Array>
          </mxGeometry>
        </mxCell>
        <mxCell id="cbb_1Zwi02tE8ZavCeOP-103" value="&lt;font style=&quot;&quot;&gt;Max Pooling (2x2)&lt;/font&gt;" style="rounded=1;whiteSpace=wrap;html=1;fillColor=#b1ddf0;strokeColor=#10739e;" vertex="1" parent="yBtOJm4Ljxpj48C1zi7a-49">
          <mxGeometry x="71" y="131" width="105" height="23" as="geometry" />
        </mxCell>
        <mxCell id="cbb_1Zwi02tE8ZavCeOP-104" value="&lt;font style=&quot;&quot;&gt;Conv Block&lt;/font&gt;" style="rounded=1;whiteSpace=wrap;html=1;fillColor=#f8cecc;strokeColor=#b85450;" vertex="1" parent="yBtOJm4Ljxpj48C1zi7a-49">
          <mxGeometry x="88.5" y="87" width="70" height="20" as="geometry" />
        </mxCell>
        <mxCell id="cbb_1Zwi02tE8ZavCeOP-128" value="" style="rounded=0;whiteSpace=wrap;html=1;strokeColor=light-dark(#fb0909, #ededed);fillColor=none;dashed=1;strokeWidth=1.2;" vertex="1" parent="yBtOJm4Ljxpj48C1zi7a-49">
          <mxGeometry x="62" y="83.5" width="118" height="337.5" as="geometry" />
        </mxCell>
        <mxCell id="yBtOJm4Ljxpj48C1zi7a-11" value="" style="group" vertex="1" connectable="0" parent="yBtOJm4Ljxpj48C1zi7a-49">
          <mxGeometry x="188" y="377" width="70" height="99" as="geometry" />
        </mxCell>
        <mxCell id="cbb_1Zwi02tE8ZavCeOP-131" value="" style="group" vertex="1" connectable="0" parent="yBtOJm4Ljxpj48C1zi7a-11">
          <mxGeometry x="13.5" y="24.5" width="43" height="70" as="geometry" />
        </mxCell>
        <mxCell id="cbb_1Zwi02tE8ZavCeOP-129" value="&lt;font style=&quot;&quot;&gt;Conv Block&lt;/font&gt;" style="rounded=1;whiteSpace=wrap;html=1;fillColor=#f8cecc;strokeColor=#b85450;rotation=-90;" vertex="1" parent="cbb_1Zwi02tE8ZavCeOP-131">
          <mxGeometry x="-25" y="25" width="70" height="20" as="geometry" />
        </mxCell>
        <mxCell id="cbb_1Zwi02tE8ZavCeOP-130" value="&lt;font style=&quot;&quot;&gt;Conv Block&lt;/font&gt;" style="rounded=1;whiteSpace=wrap;html=1;fillColor=#f8cecc;strokeColor=#b85450;rotation=-90;" vertex="1" parent="cbb_1Zwi02tE8ZavCeOP-131">
          <mxGeometry x="-2" y="25" width="70" height="20" as="geometry" />
        </mxCell>
        <mxCell id="yBtOJm4Ljxpj48C1zi7a-7" value="Bridge" style="text;html=1;align=center;verticalAlign=middle;whiteSpace=wrap;rounded=0;fontStyle=1" vertex="1" parent="yBtOJm4Ljxpj48C1zi7a-11">
          <mxGeometry y="3" width="70" height="20" as="geometry" />
        </mxCell>
        <mxCell id="yBtOJm4Ljxpj48C1zi7a-13" value="" style="rounded=0;whiteSpace=wrap;html=1;strokeColor=light-dark(#fb0909, #ededed);fillColor=none;dashed=1;strokeWidth=1.2;" vertex="1" parent="yBtOJm4Ljxpj48C1zi7a-11">
          <mxGeometry x="1" y="21" width="60" height="76" as="geometry" />
        </mxCell>
        <mxCell id="yBtOJm4Ljxpj48C1zi7a-16" value="&lt;font&gt;Conv Block&lt;/font&gt;" style="rounded=1;whiteSpace=wrap;html=1;fillColor=#f8cecc;strokeColor=#b85450;" vertex="1" parent="yBtOJm4Ljxpj48C1zi7a-49">
          <mxGeometry x="309.75" y="324" width="70" height="20" as="geometry" />
        </mxCell>
        <mxCell id="yBtOJm4Ljxpj48C1zi7a-17" value="&lt;font style=&quot;&quot;&gt;Concatenate&amp;nbsp;&lt;/font&gt;" style="rounded=1;whiteSpace=wrap;html=1;fillColor=#cdeb8b;strokeColor=#36393d;" vertex="1" parent="yBtOJm4Ljxpj48C1zi7a-49">
          <mxGeometry x="295" y="368" width="100" height="23" as="geometry" />
        </mxCell>
        <mxCell id="yBtOJm4Ljxpj48C1zi7a-18" value="&lt;font style=&quot;font-size: 11px;&quot;&gt;&lt;font style=&quot;&quot;&gt;Transpose&amp;nbsp;&lt;/font&gt;&lt;span style=&quot;background-color: transparent; color: light-dark(rgb(0, 0, 0), rgb(255, 255, 255));&quot;&gt;&lt;font style=&quot;&quot;&gt;Conv (2x2)&lt;/font&gt;&lt;/span&gt;&lt;/font&gt;" style="rounded=1;whiteSpace=wrap;html=1;fillColor=#ffe6cc;strokeColor=#d79b00;" vertex="1" parent="yBtOJm4Ljxpj48C1zi7a-49">
          <mxGeometry x="287.5" y="393" width="115" height="23" as="geometry" />
        </mxCell>
        <mxCell id="yBtOJm4Ljxpj48C1zi7a-19" value="&lt;font&gt;Conv Block&lt;/font&gt;" style="rounded=1;whiteSpace=wrap;html=1;fillColor=#f8cecc;strokeColor=#b85450;" vertex="1" parent="yBtOJm4Ljxpj48C1zi7a-49">
          <mxGeometry x="310.25" y="346" width="70" height="20" as="geometry" />
        </mxCell>
        <mxCell id="yBtOJm4Ljxpj48C1zi7a-20" value="" style="rounded=0;whiteSpace=wrap;html=1;strokeColor=light-dark(#fb0909, #ededed);fillColor=none;dashed=1;strokeWidth=1.2;" vertex="1" parent="yBtOJm4Ljxpj48C1zi7a-49">
          <mxGeometry x="279.25" y="38" width="130" height="383" as="geometry" />
        </mxCell>
        <mxCell id="yBtOJm4Ljxpj48C1zi7a-26" style="edgeStyle=orthogonalEdgeStyle;rounded=0;orthogonalLoop=1;jettySize=auto;html=1;exitX=0.5;exitY=1;exitDx=0;exitDy=0;entryX=0.5;entryY=1;entryDx=0;entryDy=0;" edge="1" parent="yBtOJm4Ljxpj48C1zi7a-49" source="cbb_1Zwi02tE8ZavCeOP-130" target="yBtOJm4Ljxpj48C1zi7a-18">
          <mxGeometry relative="1" as="geometry" />
        </mxCell>
        <mxCell id="yBtOJm4Ljxpj48C1zi7a-30" value="&lt;font&gt;Conv Block&lt;/font&gt;" style="rounded=1;whiteSpace=wrap;html=1;fillColor=#f8cecc;strokeColor=#b85450;" vertex="1" parent="yBtOJm4Ljxpj48C1zi7a-49">
          <mxGeometry x="309.75" y="230" width="70" height="20" as="geometry" />
        </mxCell>
        <mxCell id="yBtOJm4Ljxpj48C1zi7a-31" value="&lt;font style=&quot;&quot;&gt;Concatenate&amp;nbsp;&lt;/font&gt;" style="rounded=1;whiteSpace=wrap;html=1;fillColor=#cdeb8b;strokeColor=#36393d;" vertex="1" parent="yBtOJm4Ljxpj48C1zi7a-49">
          <mxGeometry x="295" y="274" width="100" height="23" as="geometry" />
        </mxCell>
        <mxCell id="yBtOJm4Ljxpj48C1zi7a-32" value="&lt;font style=&quot;font-size: 11px;&quot;&gt;&lt;font style=&quot;&quot;&gt;Transpose&amp;nbsp;&lt;/font&gt;&lt;span style=&quot;background-color: transparent; color: light-dark(rgb(0, 0, 0), rgb(255, 255, 255));&quot;&gt;&lt;font style=&quot;&quot;&gt;Conv (2x2)&lt;/font&gt;&lt;/span&gt;&lt;/font&gt;" style="rounded=1;whiteSpace=wrap;html=1;fillColor=#ffe6cc;strokeColor=#d79b00;" vertex="1" parent="yBtOJm4Ljxpj48C1zi7a-49">
          <mxGeometry x="287.5" y="299" width="115" height="23" as="geometry" />
        </mxCell>
        <mxCell id="yBtOJm4Ljxpj48C1zi7a-33" value="&lt;font&gt;Conv Block&lt;/font&gt;" style="rounded=1;whiteSpace=wrap;html=1;fillColor=#f8cecc;strokeColor=#b85450;" vertex="1" parent="yBtOJm4Ljxpj48C1zi7a-49">
          <mxGeometry x="310.25" y="252" width="70" height="20" as="geometry" />
        </mxCell>
        <mxCell id="yBtOJm4Ljxpj48C1zi7a-36" value="&lt;font&gt;Conv Block&lt;/font&gt;" style="rounded=1;whiteSpace=wrap;html=1;fillColor=#f8cecc;strokeColor=#b85450;" vertex="1" parent="yBtOJm4Ljxpj48C1zi7a-49">
          <mxGeometry x="309.5" y="136" width="70" height="20" as="geometry" />
        </mxCell>
        <mxCell id="yBtOJm4Ljxpj48C1zi7a-37" value="&lt;font style=&quot;&quot;&gt;Concatenate&amp;nbsp;&lt;/font&gt;" style="rounded=1;whiteSpace=wrap;html=1;fillColor=#cdeb8b;strokeColor=#36393d;" vertex="1" parent="yBtOJm4Ljxpj48C1zi7a-49">
          <mxGeometry x="294.75" y="180" width="100" height="23" as="geometry" />
        </mxCell>
        <mxCell id="yBtOJm4Ljxpj48C1zi7a-38" value="&lt;font style=&quot;font-size: 11px;&quot;&gt;&lt;font style=&quot;&quot;&gt;Transpose&amp;nbsp;&lt;/font&gt;&lt;span style=&quot;background-color: transparent; color: light-dark(rgb(0, 0, 0), rgb(255, 255, 255));&quot;&gt;&lt;font style=&quot;&quot;&gt;Conv (2x2)&lt;/font&gt;&lt;/span&gt;&lt;/font&gt;" style="rounded=1;whiteSpace=wrap;html=1;fillColor=#ffe6cc;strokeColor=#d79b00;" vertex="1" parent="yBtOJm4Ljxpj48C1zi7a-49">
          <mxGeometry x="287.25" y="205" width="115" height="23" as="geometry" />
        </mxCell>
        <mxCell id="yBtOJm4Ljxpj48C1zi7a-39" value="&lt;font&gt;Conv Block&lt;/font&gt;" style="rounded=1;whiteSpace=wrap;html=1;fillColor=#f8cecc;strokeColor=#b85450;" vertex="1" parent="yBtOJm4Ljxpj48C1zi7a-49">
          <mxGeometry x="310" y="158" width="70" height="20" as="geometry" />
        </mxCell>
        <mxCell id="yBtOJm4Ljxpj48C1zi7a-48" style="edgeStyle=orthogonalEdgeStyle;rounded=0;orthogonalLoop=1;jettySize=auto;html=1;exitX=0.5;exitY=0;exitDx=0;exitDy=0;entryX=0.5;entryY=1;entryDx=0;entryDy=0;" edge="1" parent="yBtOJm4Ljxpj48C1zi7a-49" source="yBtOJm4Ljxpj48C1zi7a-41" target="yBtOJm4Ljxpj48C1zi7a-46">
          <mxGeometry relative="1" as="geometry" />
        </mxCell>
        <mxCell id="yBtOJm4Ljxpj48C1zi7a-41" value="&lt;font&gt;Conv Block&lt;/font&gt;" style="rounded=1;whiteSpace=wrap;html=1;fillColor=#f8cecc;strokeColor=#b85450;" vertex="1" parent="yBtOJm4Ljxpj48C1zi7a-49">
          <mxGeometry x="309.25" y="42" width="70" height="20" as="geometry" />
        </mxCell>
        <mxCell id="yBtOJm4Ljxpj48C1zi7a-42" value="&lt;font style=&quot;&quot;&gt;Concatenate&amp;nbsp;&lt;/font&gt;" style="rounded=1;whiteSpace=wrap;html=1;fillColor=#cdeb8b;strokeColor=#36393d;" vertex="1" parent="yBtOJm4Ljxpj48C1zi7a-49">
          <mxGeometry x="294.5" y="86" width="100" height="23" as="geometry" />
        </mxCell>
        <mxCell id="yBtOJm4Ljxpj48C1zi7a-43" value="&lt;font style=&quot;font-size: 11px;&quot;&gt;&lt;font style=&quot;&quot;&gt;Transpose&amp;nbsp;&lt;/font&gt;&lt;span style=&quot;background-color: transparent; color: light-dark(rgb(0, 0, 0), rgb(255, 255, 255));&quot;&gt;&lt;font style=&quot;&quot;&gt;Conv (2x2)&lt;/font&gt;&lt;/span&gt;&lt;/font&gt;" style="rounded=1;whiteSpace=wrap;html=1;fillColor=#ffe6cc;strokeColor=#d79b00;" vertex="1" parent="yBtOJm4Ljxpj48C1zi7a-49">
          <mxGeometry x="287" y="111" width="115" height="23" as="geometry" />
        </mxCell>
        <mxCell id="yBtOJm4Ljxpj48C1zi7a-44" value="&lt;font&gt;Conv Block&lt;/font&gt;" style="rounded=1;whiteSpace=wrap;html=1;fillColor=#f8cecc;strokeColor=#b85450;" vertex="1" parent="yBtOJm4Ljxpj48C1zi7a-49">
          <mxGeometry x="309.75" y="64" width="70" height="20" as="geometry" />
        </mxCell>
        <mxCell id="yBtOJm4Ljxpj48C1zi7a-46" value="&lt;font style=&quot;&quot;&gt;Output&lt;/font&gt;" style="rounded=1;whiteSpace=wrap;html=1;fillColor=#f5f5f5;fontColor=#333333;strokeColor=#666666;" vertex="1" parent="yBtOJm4Ljxpj48C1zi7a-49">
          <mxGeometry x="310.25" width="70" height="24" as="geometry" />
        </mxCell>
        <mxCell id="cbb_1Zwi02tE8ZavCeOP-1" value="" style="rounded=0;whiteSpace=wrap;html=1;fillColor=none;strokeColor=none;" vertex="1" parent="yBtOJm4Ljxpj48C1zi7a-49">
          <mxGeometry x="-55" y="-6" width="520" height="490" as="geometry" />
        </mxCell>
      </root>
    </mxGraphModel>
  </diagram>
  <diagram name="ResUNet" id="aAUe90p1vbxl2Fj1pSYG">
    <mxGraphModel dx="1113" dy="1577" grid="1" gridSize="10" guides="1" tooltips="1" connect="1" arrows="1" fold="1" page="1" pageScale="1" pageWidth="850" pageHeight="1100" math="0" shadow="0">
      <root>
        <mxCell id="0" />
        <mxCell id="1" parent="0" />
        <mxCell id="7Ho3CXHnByhdifDy0s2U-10" value="" style="group;fillColor=none;fontColor=#333333;strokeColor=none;container=0;" parent="1" vertex="1" connectable="0">
          <mxGeometry x="130" y="-236" width="560" height="407" as="geometry" />
        </mxCell>
        <mxCell id="L7WVZayRgH51fSoZlBHT-37" style="edgeStyle=orthogonalEdgeStyle;rounded=0;orthogonalLoop=1;jettySize=auto;html=1;exitX=0.5;exitY=1;exitDx=0;exitDy=0;entryX=0.5;entryY=0;entryDx=0;entryDy=0;" parent="1" source="7Ho3CXHnByhdifDy0s2U-12" target="7Ho3CXHnByhdifDy0s2U-65" edge="1">
          <mxGeometry relative="1" as="geometry" />
        </mxCell>
        <mxCell id="L7WVZayRgH51fSoZlBHT-40" style="edgeStyle=orthogonalEdgeStyle;rounded=0;orthogonalLoop=1;jettySize=auto;html=1;exitX=0.5;exitY=1;exitDx=0;exitDy=0;entryX=0;entryY=0.5;entryDx=0;entryDy=0;" parent="1" source="7Ho3CXHnByhdifDy0s2U-12" target="L7WVZayRgH51fSoZlBHT-36" edge="1">
          <mxGeometry relative="1" as="geometry">
            <Array as="points">
              <mxPoint x="340" y="-156" />
              <mxPoint x="280" y="-156" />
              <mxPoint x="280" y="-16" />
            </Array>
          </mxGeometry>
        </mxCell>
        <mxCell id="7Ho3CXHnByhdifDy0s2U-12" value="&lt;font&gt;Input&lt;/font&gt;" style="rounded=1;whiteSpace=wrap;html=1;fillColor=#f5f5f5;fontColor=#333333;strokeColor=#666666;" parent="1" vertex="1">
          <mxGeometry x="305" y="-186" width="70" height="24" as="geometry" />
        </mxCell>
        <mxCell id="7Ho3CXHnByhdifDy0s2U-60" value="&lt;font style=&quot;&quot;&gt;Output&lt;/font&gt;" style="rounded=1;whiteSpace=wrap;html=1;fillColor=#f5f5f5;fontColor=#333333;strokeColor=#666666;" parent="1" vertex="1">
          <mxGeometry x="552" y="-231" width="70" height="24" as="geometry" />
        </mxCell>
        <mxCell id="7Ho3CXHnByhdifDy0s2U-68" value="" style="rounded=0;whiteSpace=wrap;html=1;fillColor=none;strokeColor=#FF0000;dashed=1;strokeWidth=1.2;" parent="1" vertex="1">
          <mxGeometry x="535" y="-190" width="100" height="294" as="geometry" />
        </mxCell>
        <mxCell id="7Ho3CXHnByhdifDy0s2U-64" value="&lt;span style=&quot;font-weight: normal;&quot;&gt;&lt;font style=&quot;font-size: 12px;&quot;&gt;Batch Norm&lt;/font&gt;&lt;/span&gt;" style="whiteSpace=wrap;html=1;rounded=1;fillColor=#fff2cc;strokeColor=#d6b656;fontStyle=1;fontSize=10;" parent="1" vertex="1">
          <mxGeometry x="300" y="-117" width="80" height="20" as="geometry" />
        </mxCell>
        <mxCell id="7Ho3CXHnByhdifDy0s2U-65" value="&lt;span style=&quot;font-weight: normal;&quot;&gt;&lt;font style=&quot;font-size: 12px;&quot;&gt;Conv&lt;/font&gt;&lt;/span&gt;" style="whiteSpace=wrap;html=1;rounded=1;fillColor=#e1d5e7;strokeColor=#9673a6;fontStyle=1;fontSize=10;" parent="1" vertex="1">
          <mxGeometry x="300" y="-140" width="80" height="20" as="geometry" />
        </mxCell>
        <mxCell id="7Ho3CXHnByhdifDy0s2U-66" value="&lt;font style=&quot;font-size: 12px; font-weight: normal;&quot;&gt;ReLU&lt;/font&gt;" style="whiteSpace=wrap;html=1;rounded=1;fillColor=#d5e8d4;strokeColor=#82b366;fontStyle=1;fontSize=10;" parent="1" vertex="1">
          <mxGeometry x="300" y="-93" width="80" height="20" as="geometry" />
        </mxCell>
        <mxCell id="L7WVZayRgH51fSoZlBHT-1" value="" style="group" parent="1" vertex="1" connectable="0">
          <mxGeometry x="147.5" y="-124" width="90" height="96" as="geometry" />
        </mxCell>
        <mxCell id="L7WVZayRgH51fSoZlBHT-2" value="" style="group" parent="L7WVZayRgH51fSoZlBHT-1" vertex="1" connectable="0">
          <mxGeometry x="5" y="24" width="80" height="68" as="geometry" />
        </mxCell>
        <mxCell id="L7WVZayRgH51fSoZlBHT-3" value="&lt;span style=&quot;font-size: 12px; font-weight: 400;&quot;&gt;Batch Norm&lt;/span&gt;" style="whiteSpace=wrap;html=1;rounded=1;fillColor=#fff2cc;strokeColor=#d6b656;fontStyle=1;fontSize=10;" parent="L7WVZayRgH51fSoZlBHT-2" vertex="1">
          <mxGeometry width="80" height="20" as="geometry" />
        </mxCell>
        <mxCell id="L7WVZayRgH51fSoZlBHT-4" value="&lt;span style=&quot;font-weight: normal;&quot;&gt;&lt;font style=&quot;font-size: 12px;&quot;&gt;Conv&lt;/font&gt;&lt;/span&gt;" style="whiteSpace=wrap;html=1;rounded=1;fillColor=#e1d5e7;strokeColor=#9673a6;fontStyle=1;fontSize=10;" parent="L7WVZayRgH51fSoZlBHT-2" vertex="1">
          <mxGeometry y="48" width="80" height="20" as="geometry" />
        </mxCell>
        <mxCell id="L7WVZayRgH51fSoZlBHT-5" value="&lt;font style=&quot;font-size: 12px; font-weight: normal;&quot;&gt;ReLU&lt;/font&gt;" style="whiteSpace=wrap;html=1;rounded=1;fillColor=#d5e8d4;strokeColor=#82b366;fontStyle=1;fontSize=10;" parent="L7WVZayRgH51fSoZlBHT-2" vertex="1">
          <mxGeometry y="24" width="80" height="20" as="geometry" />
        </mxCell>
        <mxCell id="L7WVZayRgH51fSoZlBHT-6" value="Conv block" style="text;html=1;align=center;verticalAlign=middle;whiteSpace=wrap;rounded=0;fontStyle=1" parent="L7WVZayRgH51fSoZlBHT-1" vertex="1">
          <mxGeometry x="8" width="70" height="20" as="geometry" />
        </mxCell>
        <mxCell id="L7WVZayRgH51fSoZlBHT-7" value="" style="rounded=0;whiteSpace=wrap;html=1;fillColor=none;strokeColor=#FF0000;dashed=1;strokeWidth=1.2;" parent="L7WVZayRgH51fSoZlBHT-1" vertex="1">
          <mxGeometry y="18" width="90" height="78" as="geometry" />
        </mxCell>
        <mxCell id="L7WVZayRgH51fSoZlBHT-32" value="" style="rounded=0;whiteSpace=wrap;html=1;fillColor=none;strokeColor=light-dark(#da0b0b, #ededed);strokeWidth=1.2;dashed=1;" parent="1" vertex="1">
          <mxGeometry x="292" y="10" width="93" height="100" as="geometry" />
        </mxCell>
        <mxCell id="L7WVZayRgH51fSoZlBHT-34" value="&lt;font style=&quot;font-size: 12px; font-weight: normal;&quot;&gt;Shortcut&lt;/font&gt;" style="whiteSpace=wrap;html=1;rounded=1;fillColor=#ffcccc;strokeColor=#36393d;fontStyle=1;fontSize=10;" parent="1" vertex="1">
          <mxGeometry x="300" y="-48" width="80" height="20" as="geometry" />
        </mxCell>
        <mxCell id="L7WVZayRgH51fSoZlBHT-43" style="edgeStyle=orthogonalEdgeStyle;rounded=0;orthogonalLoop=1;jettySize=auto;html=1;exitX=0.5;exitY=1;exitDx=0;exitDy=0;entryX=0.5;entryY=0;entryDx=0;entryDy=0;" parent="1" source="L7WVZayRgH51fSoZlBHT-36" target="zTAyR1EP8t8b5qUxrJmI-83" edge="1">
          <mxGeometry relative="1" as="geometry" />
        </mxCell>
        <mxCell id="5zsYffgFvR2aRGQn3grq-24" style="edgeStyle=orthogonalEdgeStyle;curved=1;rounded=0;orthogonalLoop=1;jettySize=auto;html=1;exitX=0.5;exitY=1;exitDx=0;exitDy=0;entryX=0;entryY=0.5;entryDx=0;entryDy=0;" edge="1" parent="1" source="L7WVZayRgH51fSoZlBHT-36" target="5zsYffgFvR2aRGQn3grq-18">
          <mxGeometry relative="1" as="geometry">
            <Array as="points">
              <mxPoint x="340" />
              <mxPoint x="450" />
              <mxPoint x="450" y="-150" />
            </Array>
          </mxGeometry>
        </mxCell>
        <mxCell id="L7WVZayRgH51fSoZlBHT-36" value="&lt;span style=&quot;font-weight: normal;&quot;&gt;&lt;font style=&quot;font-size: 12px;&quot;&gt;Addition&lt;/font&gt;&lt;/span&gt;" style="whiteSpace=wrap;html=1;rounded=1;fillColor=#f5f5f5;strokeColor=#666666;fontStyle=1;fontSize=10;gradientColor=#b3b3b3;" parent="1" vertex="1">
          <mxGeometry x="300" y="-26" width="80" height="20" as="geometry" />
        </mxCell>
        <mxCell id="L7WVZayRgH51fSoZlBHT-39" value="&lt;span style=&quot;font-weight: normal;&quot;&gt;&lt;font style=&quot;font-size: 12px;&quot;&gt;Conv&lt;/font&gt;&lt;/span&gt;" style="whiteSpace=wrap;html=1;rounded=1;fillColor=#e1d5e7;strokeColor=#9673a6;fontStyle=1;fontSize=10;" parent="1" vertex="1">
          <mxGeometry x="300" y="-71" width="80" height="20" as="geometry" />
        </mxCell>
        <mxCell id="5zsYffgFvR2aRGQn3grq-22" style="edgeStyle=orthogonalEdgeStyle;curved=1;rounded=0;orthogonalLoop=1;jettySize=auto;html=1;exitX=1;exitY=0.5;exitDx=0;exitDy=0;entryX=0;entryY=0.5;entryDx=0;entryDy=0;" edge="1" parent="1" source="zTAyR1EP8t8b5qUxrJmI-83" target="5zsYffgFvR2aRGQn3grq-13">
          <mxGeometry relative="1" as="geometry" />
        </mxCell>
        <mxCell id="zTAyR1EP8t8b5qUxrJmI-83" value="&lt;pre style=&quot;font-size: 12px; line-height: 16.25px; padding: 0 var(--jp-code-padding); color: rgb(33, 33, 33); text-align: start;&quot;&gt;&lt;span style=&quot;color: rgb(0, 0, 0); font-family: Helvetica; text-align: center; white-space: normal; font-weight: normal;&quot;&gt;Residual block&amp;nbsp;&lt;/span&gt;&lt;/pre&gt;" style="whiteSpace=wrap;html=1;rounded=1;fillColor=#cdeb8b;strokeColor=#36393d;fontStyle=1;fontSize=10;" parent="1" vertex="1">
          <mxGeometry x="296" y="15.13" width="85" height="20.08" as="geometry" />
        </mxCell>
        <mxCell id="5zsYffgFvR2aRGQn3grq-10" style="edgeStyle=orthogonalEdgeStyle;curved=1;rounded=0;orthogonalLoop=1;jettySize=auto;html=1;exitX=1;exitY=0.5;exitDx=0;exitDy=0;entryX=0;entryY=0.5;entryDx=0;entryDy=0;" edge="1" parent="1" source="zTAyR1EP8t8b5qUxrJmI-84" target="5zsYffgFvR2aRGQn3grq-8">
          <mxGeometry relative="1" as="geometry" />
        </mxCell>
        <mxCell id="zTAyR1EP8t8b5qUxrJmI-84" value="&lt;pre style=&quot;font-size: 12px; line-height: 16.25px; padding: 0 var(--jp-code-padding); color: rgb(33, 33, 33); text-align: start;&quot;&gt;&lt;span style=&quot;color: rgb(0, 0, 0); font-family: Helvetica; text-align: center; white-space: normal; font-weight: normal;&quot;&gt;Residual block&amp;nbsp;&lt;/span&gt;&lt;/pre&gt;" style="whiteSpace=wrap;html=1;rounded=1;fillColor=#cdeb8b;strokeColor=#36393d;fontStyle=1;fontSize=10;" parent="1" vertex="1">
          <mxGeometry x="296" y="38.22" width="85" height="20.08" as="geometry" />
        </mxCell>
        <mxCell id="5zsYffgFvR2aRGQn3grq-4" style="edgeStyle=orthogonalEdgeStyle;curved=1;rounded=0;orthogonalLoop=1;jettySize=auto;html=1;exitX=1;exitY=0.5;exitDx=0;exitDy=0;entryX=0;entryY=0.5;entryDx=0;entryDy=0;" edge="1" parent="1" source="zTAyR1EP8t8b5qUxrJmI-85" target="5zsYffgFvR2aRGQn3grq-1">
          <mxGeometry relative="1" as="geometry" />
        </mxCell>
        <mxCell id="zTAyR1EP8t8b5qUxrJmI-85" value="&lt;pre style=&quot;font-size: 12px; line-height: 16.25px; padding: 0 var(--jp-code-padding); color: rgb(33, 33, 33); text-align: start;&quot;&gt;&lt;span style=&quot;color: rgb(0, 0, 0); font-family: Helvetica; text-align: center; white-space: normal; font-weight: normal;&quot;&gt;Residual block&amp;nbsp;&lt;/span&gt;&lt;/pre&gt;" style="whiteSpace=wrap;html=1;rounded=1;fillColor=#cdeb8b;strokeColor=#36393d;fontStyle=1;fontSize=10;" parent="1" vertex="1">
          <mxGeometry x="296" y="62.32" width="85" height="20.08" as="geometry" />
        </mxCell>
        <mxCell id="HLMwmYJ9yYK3Oo-goaJc-4" style="edgeStyle=orthogonalEdgeStyle;rounded=0;orthogonalLoop=1;jettySize=auto;html=1;exitX=0.5;exitY=1;exitDx=0;exitDy=0;entryX=0;entryY=0.5;entryDx=0;entryDy=0;" parent="1" source="zTAyR1EP8t8b5qUxrJmI-86" target="zTAyR1EP8t8b5qUxrJmI-96" edge="1">
          <mxGeometry relative="1" as="geometry" />
        </mxCell>
        <mxCell id="zTAyR1EP8t8b5qUxrJmI-86" value="&lt;pre style=&quot;font-size: 12px; line-height: 16.25px; padding: 0 var(--jp-code-padding); color: rgb(33, 33, 33); text-align: start;&quot;&gt;&lt;span style=&quot;color: rgb(0, 0, 0); font-family: Helvetica; text-align: center; white-space: normal; font-weight: normal;&quot;&gt;Residual block&amp;nbsp;&lt;/span&gt;&lt;/pre&gt;" style="whiteSpace=wrap;html=1;rounded=1;fillColor=#cdeb8b;strokeColor=#36393d;fontStyle=1;fontSize=10;" parent="1" vertex="1">
          <mxGeometry x="296" y="86.42" width="85" height="20.08" as="geometry" />
        </mxCell>
        <mxCell id="HLMwmYJ9yYK3Oo-goaJc-1" value="Encoder" style="text;html=1;align=center;verticalAlign=middle;whiteSpace=wrap;rounded=0;fontStyle=1" parent="1" vertex="1">
          <mxGeometry x="242" y="50" width="50" height="19" as="geometry" />
        </mxCell>
        <mxCell id="HLMwmYJ9yYK3Oo-goaJc-2" value="&lt;span style=&quot;color: rgb(51, 51, 51);&quot;&gt;Decoder&lt;/span&gt;" style="text;html=1;align=center;verticalAlign=middle;whiteSpace=wrap;rounded=0;fontStyle=1" parent="1" vertex="1">
          <mxGeometry x="632" y="-66.14" width="60" height="17" as="geometry" />
        </mxCell>
        <mxCell id="HLMwmYJ9yYK3Oo-goaJc-11" value="" style="group" parent="1" vertex="1" connectable="0">
          <mxGeometry x="146" y="-210" width="91.5" height="78" as="geometry" />
        </mxCell>
        <mxCell id="L7WVZayRgH51fSoZlBHT-9" value="&lt;font style=&quot;font-size: 12px; font-weight: normal;&quot;&gt;Conv2D (1x1)&lt;/font&gt;" style="whiteSpace=wrap;html=1;rounded=1;fillColor=#ffff88;strokeColor=#36393d;fontStyle=1;fontSize=10;" parent="HLMwmYJ9yYK3Oo-goaJc-11" vertex="1">
          <mxGeometry x="5.75" y="30" width="80" height="20" as="geometry" />
        </mxCell>
        <mxCell id="L7WVZayRgH51fSoZlBHT-10" value="&lt;span style=&quot;font-weight: normal;&quot;&gt;&lt;font style=&quot;font-size: 12px;&quot;&gt;Batch Norm&lt;/font&gt;&lt;/span&gt;" style="whiteSpace=wrap;html=1;rounded=1;fillColor=#fff2cc;strokeColor=#d6b656;fontStyle=1;fontSize=10;" parent="HLMwmYJ9yYK3Oo-goaJc-11" vertex="1">
          <mxGeometry x="5.75" y="53" width="80" height="20" as="geometry" />
        </mxCell>
        <mxCell id="L7WVZayRgH51fSoZlBHT-11" value="Shortcut" style="text;html=1;align=center;verticalAlign=middle;whiteSpace=wrap;rounded=0;fontStyle=1" parent="HLMwmYJ9yYK3Oo-goaJc-11" vertex="1">
          <mxGeometry x="16.75" width="60" height="33" as="geometry" />
        </mxCell>
        <mxCell id="L7WVZayRgH51fSoZlBHT-12" value="" style="rounded=0;whiteSpace=wrap;html=1;fillColor=none;strokeColor=light-dark(#da0b0b, #ededed);strokeWidth=1.2;dashed=1;" parent="HLMwmYJ9yYK3Oo-goaJc-11" vertex="1">
          <mxGeometry y="25" width="91.5" height="53" as="geometry" />
        </mxCell>
        <mxCell id="HLMwmYJ9yYK3Oo-goaJc-21" value="" style="group" parent="1" vertex="1" connectable="0">
          <mxGeometry x="445" y="89" width="91.5" height="76" as="geometry" />
        </mxCell>
        <mxCell id="7Ho3CXHnByhdifDy0s2U-39" value="Bridge" style="text;html=1;align=center;verticalAlign=middle;whiteSpace=wrap;rounded=0;fontStyle=1" parent="HLMwmYJ9yYK3Oo-goaJc-21" vertex="1">
          <mxGeometry x="10.5" width="70" height="20" as="geometry" />
        </mxCell>
        <mxCell id="HLMwmYJ9yYK3Oo-goaJc-3" value="" style="group" parent="HLMwmYJ9yYK3Oo-goaJc-21" vertex="1" connectable="0">
          <mxGeometry y="22" width="91.5" height="54" as="geometry" />
        </mxCell>
        <mxCell id="zTAyR1EP8t8b5qUxrJmI-94" value="" style="group" parent="HLMwmYJ9yYK3Oo-goaJc-3" vertex="1" connectable="0">
          <mxGeometry x="6" y="6" width="85.5" height="48" as="geometry" />
        </mxCell>
        <mxCell id="zTAyR1EP8t8b5qUxrJmI-88" value="&lt;span style=&quot;font-size: 12px;&quot;&gt;Conv block&lt;/span&gt;" style="whiteSpace=wrap;html=1;rounded=1;fillColor=#dae8fc;strokeColor=#6c8ebf;fontStyle=0;fontSize=10;gradientColor=#7ea6e0;" parent="zTAyR1EP8t8b5qUxrJmI-94" vertex="1">
          <mxGeometry width="80" height="20" as="geometry" />
        </mxCell>
        <mxCell id="zTAyR1EP8t8b5qUxrJmI-90" value="&lt;span style=&quot;font-size: 12px;&quot;&gt;Conv block&lt;/span&gt;" style="whiteSpace=wrap;html=1;rounded=1;fillColor=#dae8fc;strokeColor=#6c8ebf;fontStyle=0;fontSize=10;gradientColor=#7ea6e0;" parent="zTAyR1EP8t8b5qUxrJmI-94" vertex="1">
          <mxGeometry y="22" width="80" height="20" as="geometry" />
        </mxCell>
        <mxCell id="zTAyR1EP8t8b5qUxrJmI-96" value="" style="rounded=0;whiteSpace=wrap;html=1;fillColor=none;strokeColor=light-dark(#e50606, #ededed);strokeWidth=1.2;dashed=1;" parent="zTAyR1EP8t8b5qUxrJmI-94" vertex="1">
          <mxGeometry x="-5.5" y="-6" width="91" height="54" as="geometry" />
        </mxCell>
        <mxCell id="5zsYffgFvR2aRGQn3grq-3" style="edgeStyle=orthogonalEdgeStyle;rounded=0;orthogonalLoop=1;jettySize=auto;html=1;exitX=1;exitY=0.5;exitDx=0;exitDy=0;entryX=0.5;entryY=1;entryDx=0;entryDy=0;" edge="1" parent="1" source="zTAyR1EP8t8b5qUxrJmI-96" target="5zsYffgFvR2aRGQn3grq-2">
          <mxGeometry relative="1" as="geometry" />
        </mxCell>
        <mxCell id="5zsYffgFvR2aRGQn3grq-5" value="" style="group" vertex="1" connectable="0" parent="1">
          <mxGeometry x="544" y="23.14" width="86" height="65.86" as="geometry" />
        </mxCell>
        <mxCell id="HLMwmYJ9yYK3Oo-goaJc-19" value="&lt;pre style=&quot;font-size: 12px; line-height: 16.25px; padding: 0 var(--jp-code-padding); color: rgb(33, 33, 33); text-align: start;&quot;&gt;&lt;span style=&quot;color: rgb(0, 0, 0); font-family: Helvetica; text-align: center; white-space: normal; font-weight: normal;&quot;&gt;Residual block&amp;nbsp;&lt;/span&gt;&lt;/pre&gt;" style="whiteSpace=wrap;html=1;rounded=1;fillColor=#cdeb8b;strokeColor=#36393d;fontStyle=1;fontSize=10;" parent="5zsYffgFvR2aRGQn3grq-5" vertex="1">
          <mxGeometry width="86" height="20.08" as="geometry" />
        </mxCell>
        <mxCell id="5zsYffgFvR2aRGQn3grq-1" value="&lt;pre style=&quot;text-align: center; font-size: 12px; line-height: 16.25px; padding: 0 var(--jp-code-padding); color: rgb(33, 33, 33);&quot;&gt;&lt;font face=&quot;Helvetica&quot;&gt;&lt;span style=&quot;font-weight: 400; white-space: normal;&quot;&gt;Concatenate &lt;/span&gt;&lt;/font&gt;&lt;/pre&gt;" style="whiteSpace=wrap;html=1;rounded=1;fillColor=#ffcc99;strokeColor=#36393d;fontStyle=1;fontSize=10;" vertex="1" parent="5zsYffgFvR2aRGQn3grq-5">
          <mxGeometry x="1.5" y="22.86" width="83" height="20.08" as="geometry" />
        </mxCell>
        <mxCell id="5zsYffgFvR2aRGQn3grq-2" value="&lt;pre style=&quot;font-size: 12px; line-height: 16.25px; padding: 0 var(--jp-code-padding); color: rgb(33, 33, 33); text-align: start;&quot;&gt;&lt;span style=&quot;color: rgb(0, 0, 0); font-family: Helvetica; text-align: center; white-space: normal; font-weight: normal;&quot;&gt;Up Sampling&amp;nbsp;&lt;/span&gt;&lt;/pre&gt;" style="whiteSpace=wrap;html=1;rounded=1;fillColor=#f9f7ed;strokeColor=light-dark(#19191a, #babdc0);fontStyle=1;fontSize=10;" vertex="1" parent="5zsYffgFvR2aRGQn3grq-5">
          <mxGeometry x="1.5" y="45.78" width="83" height="20.08" as="geometry" />
        </mxCell>
        <mxCell id="5zsYffgFvR2aRGQn3grq-6" value="" style="group" vertex="1" connectable="0" parent="1">
          <mxGeometry x="544" y="-47" width="86" height="65.86" as="geometry" />
        </mxCell>
        <mxCell id="5zsYffgFvR2aRGQn3grq-7" value="&lt;pre style=&quot;font-size: 12px; line-height: 16.25px; padding: 0 var(--jp-code-padding); color: rgb(33, 33, 33); text-align: start;&quot;&gt;&lt;span style=&quot;color: rgb(0, 0, 0); font-family: Helvetica; text-align: center; white-space: normal; font-weight: normal;&quot;&gt;Residual block&amp;nbsp;&lt;/span&gt;&lt;/pre&gt;" style="whiteSpace=wrap;html=1;rounded=1;fillColor=#cdeb8b;strokeColor=#36393d;fontStyle=1;fontSize=10;" vertex="1" parent="5zsYffgFvR2aRGQn3grq-6">
          <mxGeometry width="86" height="20.08" as="geometry" />
        </mxCell>
        <mxCell id="5zsYffgFvR2aRGQn3grq-8" value="&lt;pre style=&quot;text-align: center; font-size: 12px; line-height: 16.25px; padding: 0 var(--jp-code-padding); color: rgb(33, 33, 33);&quot;&gt;&lt;font face=&quot;Helvetica&quot;&gt;&lt;span style=&quot;font-weight: 400; white-space: normal;&quot;&gt;Concatenate &lt;/span&gt;&lt;/font&gt;&lt;/pre&gt;" style="whiteSpace=wrap;html=1;rounded=1;fillColor=#ffcc99;strokeColor=#36393d;fontStyle=1;fontSize=10;" vertex="1" parent="5zsYffgFvR2aRGQn3grq-6">
          <mxGeometry x="1.5" y="22.86" width="83" height="20.08" as="geometry" />
        </mxCell>
        <mxCell id="5zsYffgFvR2aRGQn3grq-9" value="&lt;pre style=&quot;font-size: 12px; line-height: 16.25px; padding: 0 var(--jp-code-padding); color: rgb(33, 33, 33); text-align: start;&quot;&gt;&lt;span style=&quot;color: rgb(0, 0, 0); font-family: Helvetica; text-align: center; white-space: normal; font-weight: normal;&quot;&gt;Up Sampling&amp;nbsp;&lt;/span&gt;&lt;/pre&gt;" style="whiteSpace=wrap;html=1;rounded=1;fillColor=#f9f7ed;strokeColor=light-dark(#19191a, #babdc0);fontStyle=1;fontSize=10;" vertex="1" parent="5zsYffgFvR2aRGQn3grq-6">
          <mxGeometry x="1.5" y="45.78" width="83" height="20.08" as="geometry" />
        </mxCell>
        <mxCell id="5zsYffgFvR2aRGQn3grq-11" value="" style="group" vertex="1" connectable="0" parent="1">
          <mxGeometry x="544" y="-114.99999999999999" width="86" height="65.86" as="geometry" />
        </mxCell>
        <mxCell id="5zsYffgFvR2aRGQn3grq-12" value="&lt;pre style=&quot;font-size: 12px; line-height: 16.25px; padding: 0 var(--jp-code-padding); color: rgb(33, 33, 33); text-align: start;&quot;&gt;&lt;span style=&quot;color: rgb(0, 0, 0); font-family: Helvetica; text-align: center; white-space: normal; font-weight: normal;&quot;&gt;Residual block&amp;nbsp;&lt;/span&gt;&lt;/pre&gt;" style="whiteSpace=wrap;html=1;rounded=1;fillColor=#cdeb8b;strokeColor=#36393d;fontStyle=1;fontSize=10;" vertex="1" parent="5zsYffgFvR2aRGQn3grq-11">
          <mxGeometry width="86" height="20.08" as="geometry" />
        </mxCell>
        <mxCell id="5zsYffgFvR2aRGQn3grq-13" value="&lt;pre style=&quot;text-align: center; font-size: 12px; line-height: 16.25px; padding: 0 var(--jp-code-padding); color: rgb(33, 33, 33);&quot;&gt;&lt;font face=&quot;Helvetica&quot;&gt;&lt;span style=&quot;font-weight: 400; white-space: normal;&quot;&gt;Concatenate &lt;/span&gt;&lt;/font&gt;&lt;/pre&gt;" style="whiteSpace=wrap;html=1;rounded=1;fillColor=#ffcc99;strokeColor=#36393d;fontStyle=1;fontSize=10;" vertex="1" parent="5zsYffgFvR2aRGQn3grq-11">
          <mxGeometry x="1.5" y="22.86" width="83" height="20.08" as="geometry" />
        </mxCell>
        <mxCell id="5zsYffgFvR2aRGQn3grq-14" value="&lt;pre style=&quot;font-size: 12px; line-height: 16.25px; padding: 0 var(--jp-code-padding); color: rgb(33, 33, 33); text-align: start;&quot;&gt;&lt;span style=&quot;color: rgb(0, 0, 0); font-family: Helvetica; text-align: center; white-space: normal; font-weight: normal;&quot;&gt;Up Sampling&amp;nbsp;&lt;/span&gt;&lt;/pre&gt;" style="whiteSpace=wrap;html=1;rounded=1;fillColor=#f9f7ed;strokeColor=light-dark(#19191a, #babdc0);fontStyle=1;fontSize=10;" vertex="1" parent="5zsYffgFvR2aRGQn3grq-11">
          <mxGeometry x="1.5" y="45.78" width="83" height="20.08" as="geometry" />
        </mxCell>
        <mxCell id="5zsYffgFvR2aRGQn3grq-16" value="" style="group" vertex="1" connectable="0" parent="1">
          <mxGeometry x="544" y="-183" width="86" height="65.86" as="geometry" />
        </mxCell>
        <mxCell id="5zsYffgFvR2aRGQn3grq-17" value="&lt;pre style=&quot;font-size: 12px; line-height: 16.25px; padding: 0 var(--jp-code-padding); color: rgb(33, 33, 33); text-align: start;&quot;&gt;&lt;span style=&quot;color: rgb(0, 0, 0); font-family: Helvetica; text-align: center; white-space: normal; font-weight: normal;&quot;&gt;Residual block&amp;nbsp;&lt;/span&gt;&lt;/pre&gt;" style="whiteSpace=wrap;html=1;rounded=1;fillColor=#cdeb8b;strokeColor=#36393d;fontStyle=1;fontSize=10;" vertex="1" parent="5zsYffgFvR2aRGQn3grq-16">
          <mxGeometry width="86" height="20.08" as="geometry" />
        </mxCell>
        <mxCell id="5zsYffgFvR2aRGQn3grq-18" value="&lt;pre style=&quot;text-align: center; font-size: 12px; line-height: 16.25px; padding: 0 var(--jp-code-padding); color: rgb(33, 33, 33);&quot;&gt;&lt;font face=&quot;Helvetica&quot;&gt;&lt;span style=&quot;font-weight: 400; white-space: normal;&quot;&gt;Concatenate &lt;/span&gt;&lt;/font&gt;&lt;/pre&gt;" style="whiteSpace=wrap;html=1;rounded=1;fillColor=#ffcc99;strokeColor=#36393d;fontStyle=1;fontSize=10;" vertex="1" parent="5zsYffgFvR2aRGQn3grq-16">
          <mxGeometry x="1.5" y="22.86" width="83" height="20.08" as="geometry" />
        </mxCell>
        <mxCell id="5zsYffgFvR2aRGQn3grq-19" value="&lt;pre style=&quot;font-size: 12px; line-height: 16.25px; padding: 0 var(--jp-code-padding); color: rgb(33, 33, 33); text-align: start;&quot;&gt;&lt;span style=&quot;color: rgb(0, 0, 0); font-family: Helvetica; text-align: center; white-space: normal; font-weight: normal;&quot;&gt;Up Sampling&amp;nbsp;&lt;/span&gt;&lt;/pre&gt;" style="whiteSpace=wrap;html=1;rounded=1;fillColor=#f9f7ed;strokeColor=light-dark(#19191a, #babdc0);fontStyle=1;fontSize=10;" vertex="1" parent="5zsYffgFvR2aRGQn3grq-16">
          <mxGeometry x="1.5" y="45.78" width="83" height="20.08" as="geometry" />
        </mxCell>
        <mxCell id="5zsYffgFvR2aRGQn3grq-27" style="edgeStyle=orthogonalEdgeStyle;curved=1;rounded=0;orthogonalLoop=1;jettySize=auto;html=1;entryX=0.5;entryY=1;entryDx=0;entryDy=0;" edge="1" parent="1" source="5zsYffgFvR2aRGQn3grq-17" target="7Ho3CXHnByhdifDy0s2U-60">
          <mxGeometry relative="1" as="geometry" />
        </mxCell>
        <mxCell id="5zsYffgFvR2aRGQn3grq-30" value="" style="group" vertex="1" connectable="0" parent="1">
          <mxGeometry x="126" y="-27" width="128.5" height="168.5" as="geometry" />
        </mxCell>
        <mxCell id="L7WVZayRgH51fSoZlBHT-14" style="edgeStyle=orthogonalEdgeStyle;rounded=0;orthogonalLoop=1;jettySize=auto;html=1;entryX=0;entryY=0.5;entryDx=0;entryDy=0;" parent="5zsYffgFvR2aRGQn3grq-30" target="L7WVZayRgH51fSoZlBHT-21" edge="1">
          <mxGeometry relative="1" as="geometry">
            <mxPoint x="69.25" y="37.25" as="sourcePoint" />
            <Array as="points">
              <mxPoint x="17.25" y="37.25" />
              <mxPoint x="17.25" y="129.25" />
            </Array>
          </mxGeometry>
        </mxCell>
        <mxCell id="L7WVZayRgH51fSoZlBHT-16" style="edgeStyle=orthogonalEdgeStyle;curved=1;rounded=0;orthogonalLoop=1;jettySize=auto;html=1;exitX=0.5;exitY=0;exitDx=0;exitDy=0;startArrow=blockThin;startFill=1;endArrow=none;strokeWidth=1.3;" parent="5zsYffgFvR2aRGQn3grq-30" source="L7WVZayRgH51fSoZlBHT-17" edge="1">
          <mxGeometry relative="1" as="geometry">
            <mxPoint x="69.25" y="24.25" as="targetPoint" />
          </mxGeometry>
        </mxCell>
        <mxCell id="L7WVZayRgH51fSoZlBHT-17" value="&lt;span style=&quot;font-size: 12px;&quot;&gt;Conv block&lt;/span&gt;" style="whiteSpace=wrap;html=1;rounded=1;fillColor=#b1ddf0;strokeColor=#10739e;fontStyle=0;fontSize=10;" parent="5zsYffgFvR2aRGQn3grq-30" vertex="1">
          <mxGeometry x="29.25" y="51.25" width="80" height="20" as="geometry" />
        </mxCell>
        <mxCell id="L7WVZayRgH51fSoZlBHT-18" value="&lt;span style=&quot;font-size: 12px;&quot;&gt;Conv block&lt;/span&gt;" style="whiteSpace=wrap;html=1;rounded=1;fillColor=#b1ddf0;strokeColor=#10739e;fontStyle=0;fontSize=10;" parent="5zsYffgFvR2aRGQn3grq-30" vertex="1">
          <mxGeometry x="29.25" y="74.25" width="80" height="20" as="geometry" />
        </mxCell>
        <mxCell id="L7WVZayRgH51fSoZlBHT-19" value="&lt;font style=&quot;font-size: 12px; font-weight: normal;&quot;&gt;Shortcut&lt;/font&gt;" style="whiteSpace=wrap;html=1;rounded=1;fillColor=#ffcccc;strokeColor=#36393d;fontStyle=1;fontSize=10;" parent="5zsYffgFvR2aRGQn3grq-30" vertex="1">
          <mxGeometry x="29.25" y="97.25" width="80" height="20" as="geometry" />
        </mxCell>
        <mxCell id="L7WVZayRgH51fSoZlBHT-20" style="edgeStyle=orthogonalEdgeStyle;curved=1;rounded=0;orthogonalLoop=1;jettySize=auto;html=1;exitX=0.5;exitY=1;exitDx=0;exitDy=0;strokeWidth=1.3;endArrow=blockThin;startFill=0;startArrow=none;endFill=1;" parent="5zsYffgFvR2aRGQn3grq-30" source="L7WVZayRgH51fSoZlBHT-21" edge="1">
          <mxGeometry relative="1" as="geometry">
            <mxPoint x="69.25" y="167.25" as="targetPoint" />
            <Array as="points">
              <mxPoint x="69.25" y="157.25" />
              <mxPoint x="69.25" y="157.25" />
            </Array>
          </mxGeometry>
        </mxCell>
        <mxCell id="L7WVZayRgH51fSoZlBHT-21" value="&lt;span style=&quot;font-weight: normal;&quot;&gt;&lt;font style=&quot;font-size: 12px;&quot;&gt;Addition&lt;/font&gt;&lt;/span&gt;" style="whiteSpace=wrap;html=1;rounded=1;fillColor=#f5f5f5;strokeColor=#666666;fontStyle=1;fontSize=10;gradientColor=#b3b3b3;" parent="5zsYffgFvR2aRGQn3grq-30" vertex="1">
          <mxGeometry x="29.25" y="119.25" width="80" height="20" as="geometry" />
        </mxCell>
        <mxCell id="L7WVZayRgH51fSoZlBHT-41" value="Residual block&amp;nbsp;" style="text;html=1;align=center;verticalAlign=middle;whiteSpace=wrap;rounded=0;fontStyle=1" parent="5zsYffgFvR2aRGQn3grq-30" vertex="1">
          <mxGeometry width="128.5" height="33" as="geometry" />
        </mxCell>
        <mxCell id="L7WVZayRgH51fSoZlBHT-22" value="" style="rounded=0;whiteSpace=wrap;html=1;fillColor=none;strokeColor=light-dark(#da0b0b, #ededed);strokeWidth=1.2;dashed=1;" parent="5zsYffgFvR2aRGQn3grq-30" vertex="1">
          <mxGeometry x="12.25" y="27.5" width="100" height="141" as="geometry" />
        </mxCell>
      </root>
    </mxGraphModel>
  </diagram>
  <diagram name="Page-3" id="U2YVGYPWzpdxNZlWvTvm">
    <mxGraphModel dx="1724" dy="477" grid="1" gridSize="10" guides="1" tooltips="1" connect="1" arrows="1" fold="1" page="1" pageScale="1" pageWidth="850" pageHeight="1100" math="0" shadow="0">
      <root>
        <mxCell id="0" />
        <mxCell id="1" parent="0" />
        <mxCell id="0hJVZdr-BbgBb25B6AkM-19" value="" style="group" vertex="1" connectable="0" parent="1">
          <mxGeometry x="400" y="445" width="91" height="75" as="geometry" />
        </mxCell>
        <mxCell id="0hJVZdr-BbgBb25B6AkM-20" value="" style="group" vertex="1" connectable="0" parent="0hJVZdr-BbgBb25B6AkM-19">
          <mxGeometry x="6" y="27" width="80" height="42" as="geometry" />
        </mxCell>
        <mxCell id="0hJVZdr-BbgBb25B6AkM-21" value="&lt;span style=&quot;font-size: 12px;&quot;&gt;&lt;b&gt;Conv_block&lt;/b&gt;&lt;/span&gt;" style="whiteSpace=wrap;html=1;rounded=1;fillColor=#dae8fc;strokeColor=#6c8ebf;fontStyle=0;fontSize=10;gradientColor=#7ea6e0;" vertex="1" parent="0hJVZdr-BbgBb25B6AkM-20">
          <mxGeometry width="80" height="20" as="geometry" />
        </mxCell>
        <mxCell id="0hJVZdr-BbgBb25B6AkM-22" value="&lt;span style=&quot;font-size: 12px;&quot;&gt;&lt;b&gt;Conv_block&lt;/b&gt;&lt;/span&gt;" style="whiteSpace=wrap;html=1;rounded=1;fillColor=#dae8fc;strokeColor=#6c8ebf;fontStyle=0;fontSize=10;gradientColor=#7ea6e0;" vertex="1" parent="0hJVZdr-BbgBb25B6AkM-20">
          <mxGeometry y="22" width="80" height="20" as="geometry" />
        </mxCell>
        <mxCell id="0hJVZdr-BbgBb25B6AkM-23" value="" style="rounded=0;whiteSpace=wrap;html=1;fillColor=none;strokeColor=light-dark(#e50606, #ededed);strokeWidth=1.4;dashed=1;" vertex="1" parent="0hJVZdr-BbgBb25B6AkM-19">
          <mxGeometry y="21" width="91" height="54" as="geometry" />
        </mxCell>
        <mxCell id="0hJVZdr-BbgBb25B6AkM-24" value="&lt;pre style=&quot;line-height: 16.25px; padding: 0 var(--jp-code-padding); color: rgb(33, 33, 33); font-size: 13px; text-align: start;&quot;&gt;&lt;span style=&quot;color: var(--jp-mirror-editor-comment-color);&quot; class=&quot;c1&quot;&gt;Bridge&lt;/span&gt;&lt;/pre&gt;" style="text;html=1;align=center;verticalAlign=middle;whiteSpace=wrap;rounded=0;fontStyle=1" vertex="1" parent="0hJVZdr-BbgBb25B6AkM-19">
          <mxGeometry x="11" width="70" height="20" as="geometry" />
        </mxCell>
        <mxCell id="0hJVZdr-BbgBb25B6AkM-25" value="" style="group" vertex="1" connectable="0" parent="1">
          <mxGeometry x="407" y="107.5" width="100" height="140" as="geometry" />
        </mxCell>
        <mxCell id="0hJVZdr-BbgBb25B6AkM-26" value="&lt;pre style=&quot;line-height: 16.25px; padding: 0 var(--jp-code-padding); color: rgb(33, 33, 33); font-size: 13px; text-align: start;&quot;&gt;&lt;span class=&quot;n&quot;&gt;&lt;b&gt;upsample_concat_block&lt;/b&gt;&lt;/span&gt;&lt;/pre&gt;" style="text;html=1;align=center;verticalAlign=middle;whiteSpace=wrap;rounded=0;fontStyle=0" vertex="1" parent="0hJVZdr-BbgBb25B6AkM-25">
          <mxGeometry x="1" width="98" height="20" as="geometry" />
        </mxCell>
        <mxCell id="0hJVZdr-BbgBb25B6AkM-27" style="edgeStyle=orthogonalEdgeStyle;rounded=0;orthogonalLoop=1;jettySize=auto;html=1;exitX=0.5;exitY=1;exitDx=0;exitDy=0;strokeWidth=1.2;endArrow=none;startFill=1;startArrow=blockThin;" edge="1" parent="0hJVZdr-BbgBb25B6AkM-25" source="0hJVZdr-BbgBb25B6AkM-28">
          <mxGeometry relative="1" as="geometry">
            <mxPoint x="51" y="136" as="targetPoint" />
            <Array as="points">
              <mxPoint x="51" y="126" />
              <mxPoint x="51" y="126" />
            </Array>
          </mxGeometry>
        </mxCell>
        <mxCell id="0hJVZdr-BbgBb25B6AkM-28" value="&lt;span style=&quot;&quot;&gt;&lt;font style=&quot;font-size: 12px;&quot;&gt;Up Sampling&lt;/font&gt;&lt;/span&gt;" style="whiteSpace=wrap;html=1;rounded=1;fillColor=#fff2cc;strokeColor=#d6b656;fontStyle=0;fontSize=10;" vertex="1" parent="0hJVZdr-BbgBb25B6AkM-25">
          <mxGeometry x="8" y="86" width="86" height="20" as="geometry" />
        </mxCell>
        <mxCell id="0hJVZdr-BbgBb25B6AkM-29" value="&lt;font style=&quot;&quot;&gt;Concatenate&amp;nbsp;&lt;/font&gt;" style="rounded=1;whiteSpace=wrap;html=1;fillColor=#e6d0de;strokeColor=#996185;gradientColor=#d5739d;" vertex="1" parent="0hJVZdr-BbgBb25B6AkM-25">
          <mxGeometry x="8.5" y="58" width="85" height="23" as="geometry" />
        </mxCell>
        <mxCell id="0hJVZdr-BbgBb25B6AkM-30" style="edgeStyle=orthogonalEdgeStyle;rounded=0;orthogonalLoop=1;jettySize=auto;html=1;exitX=0.5;exitY=0;exitDx=0;exitDy=0;strokeWidth=1.2;endArrow=blockThin;endFill=1;" edge="1" parent="0hJVZdr-BbgBb25B6AkM-25">
          <mxGeometry relative="1" as="geometry">
            <mxPoint x="51" y="26" as="targetPoint" />
            <mxPoint x="50.5" y="56" as="sourcePoint" />
          </mxGeometry>
        </mxCell>
        <mxCell id="0hJVZdr-BbgBb25B6AkM-31" value="" style="rounded=0;whiteSpace=wrap;html=1;fillColor=none;strokeColor=light-dark(#ec0404, #ededed);strokeWidth=1.4;dashed=1;" vertex="1" parent="0hJVZdr-BbgBb25B6AkM-25">
          <mxGeometry y="20" width="100" height="120" as="geometry" />
        </mxCell>
        <mxCell id="0hJVZdr-BbgBb25B6AkM-39" value="" style="group" vertex="1" connectable="0" parent="1">
          <mxGeometry x="660" y="60" width="170" height="217" as="geometry" />
        </mxCell>
        <mxCell id="0hJVZdr-BbgBb25B6AkM-40" value="&lt;pre style=&quot;line-height: 16.25px; padding: 0 var(--jp-code-padding); color: rgb(33, 33, 33); font-size: 13px; text-align: start;&quot;&gt;&lt;pre style=&quot;font-weight: 400; line-height: 16.25px; padding: 0 var(--jp-code-padding); color: rgb(33, 33, 33);&quot;&gt;&lt;span style=&quot;color: var(--jp-mirror-editor-comment-color);&quot; class=&quot;c1&quot;&gt;&lt;b&gt;Decoder&lt;/b&gt;&lt;/span&gt;&lt;/pre&gt;&lt;/pre&gt;" style="text;html=1;align=center;verticalAlign=middle;whiteSpace=wrap;rounded=0;fontStyle=1" vertex="1" parent="0hJVZdr-BbgBb25B6AkM-39">
          <mxGeometry x="50" width="70" height="20" as="geometry" />
        </mxCell>
        <mxCell id="0hJVZdr-BbgBb25B6AkM-41" value="" style="group" vertex="1" connectable="0" parent="0hJVZdr-BbgBb25B6AkM-39">
          <mxGeometry x="5" y="26" width="160" height="185.5" as="geometry" />
        </mxCell>
        <mxCell id="0hJVZdr-BbgBb25B6AkM-42" value="&lt;pre style=&quot;font-size: 12px; line-height: 16.25px; padding: 0 var(--jp-code-padding); color: rgb(33, 33, 33); text-align: start;&quot;&gt;&lt;pre style=&quot;font-weight: 400; line-height: 16.25px; padding: 0 var(--jp-code-padding); color: rgb(33, 33, 33); font-size: 13px;&quot;&gt;&lt;span class=&quot;n&quot;&gt;&lt;b&gt;upsample_concat_block&lt;/b&gt;&lt;/span&gt;&lt;/pre&gt;&lt;/pre&gt;" style="whiteSpace=wrap;html=1;rounded=1;fillColor=#f5f5f5;strokeColor=#666666;fontStyle=1;fontSize=10;gradientColor=#b3b3b3;" vertex="1" parent="0hJVZdr-BbgBb25B6AkM-41">
          <mxGeometry y="165.5" width="160" height="20" as="geometry" />
        </mxCell>
        <mxCell id="0hJVZdr-BbgBb25B6AkM-43" value="&lt;pre style=&quot;font-size: 12px; line-height: 16.25px; padding: 0 var(--jp-code-padding); color: rgb(33, 33, 33); text-align: start;&quot;&gt;&lt;span style=&quot;&quot; class=&quot;nf&quot;&gt;&lt;font style=&quot;font-size: 13px;&quot;&gt;Residual_block&lt;/font&gt;&lt;/span&gt;&lt;/pre&gt;" style="whiteSpace=wrap;html=1;rounded=1;fillColor=#cdeb8b;strokeColor=#36393d;fontStyle=1;fontSize=10;" vertex="1" parent="0hJVZdr-BbgBb25B6AkM-41">
          <mxGeometry x="25" y="141.5" width="110" height="20" as="geometry" />
        </mxCell>
        <mxCell id="0hJVZdr-BbgBb25B6AkM-44" value="&lt;pre style=&quot;font-size: 12px; line-height: 16.25px; padding: 0 var(--jp-code-padding); color: rgb(33, 33, 33); text-align: start;&quot;&gt;&lt;pre style=&quot;font-weight: 400; line-height: 16.25px; padding: 0 var(--jp-code-padding); color: rgb(33, 33, 33); font-size: 13px;&quot;&gt;&lt;span class=&quot;n&quot;&gt;&lt;b&gt;upsample_concat_block&lt;/b&gt;&lt;/span&gt;&lt;/pre&gt;&lt;/pre&gt;" style="whiteSpace=wrap;html=1;rounded=1;fillColor=#f5f5f5;strokeColor=#666666;fontStyle=1;fontSize=10;gradientColor=#b3b3b3;" vertex="1" parent="0hJVZdr-BbgBb25B6AkM-41">
          <mxGeometry y="117.5" width="160" height="20" as="geometry" />
        </mxCell>
        <mxCell id="0hJVZdr-BbgBb25B6AkM-45" value="&lt;pre style=&quot;font-size: 12px; line-height: 16.25px; padding: 0 var(--jp-code-padding); color: rgb(33, 33, 33); text-align: start;&quot;&gt;&lt;span style=&quot;&quot; class=&quot;nf&quot;&gt;&lt;font style=&quot;font-size: 13px;&quot;&gt;Residual_block&lt;/font&gt;&lt;/span&gt;&lt;/pre&gt;" style="whiteSpace=wrap;html=1;rounded=1;fillColor=#cdeb8b;strokeColor=#36393d;fontStyle=1;fontSize=10;" vertex="1" parent="0hJVZdr-BbgBb25B6AkM-41">
          <mxGeometry x="25" y="94.5" width="110" height="20" as="geometry" />
        </mxCell>
        <mxCell id="0hJVZdr-BbgBb25B6AkM-46" value="&lt;pre style=&quot;font-size: 12px; line-height: 16.25px; padding: 0 var(--jp-code-padding); color: rgb(33, 33, 33); text-align: start;&quot;&gt;&lt;pre style=&quot;font-weight: 400; line-height: 16.25px; padding: 0 var(--jp-code-padding); color: rgb(33, 33, 33); font-size: 13px;&quot;&gt;&lt;span class=&quot;n&quot;&gt;&lt;b&gt;upsample_concat_block&lt;/b&gt;&lt;/span&gt;&lt;/pre&gt;&lt;/pre&gt;" style="whiteSpace=wrap;html=1;rounded=1;fillColor=#f5f5f5;strokeColor=#666666;fontStyle=1;fontSize=10;gradientColor=#b3b3b3;" vertex="1" parent="0hJVZdr-BbgBb25B6AkM-41">
          <mxGeometry y="71" width="160" height="20" as="geometry" />
        </mxCell>
        <mxCell id="0hJVZdr-BbgBb25B6AkM-47" value="&lt;pre style=&quot;font-size: 12px; line-height: 16.25px; padding: 0 var(--jp-code-padding); color: rgb(33, 33, 33); text-align: start;&quot;&gt;&lt;span style=&quot;&quot; class=&quot;nf&quot;&gt;&lt;font style=&quot;font-size: 13px;&quot;&gt;Residual_block&lt;/font&gt;&lt;/span&gt;&lt;/pre&gt;" style="whiteSpace=wrap;html=1;rounded=1;fillColor=#cdeb8b;strokeColor=#36393d;fontStyle=1;fontSize=10;" vertex="1" parent="0hJVZdr-BbgBb25B6AkM-41">
          <mxGeometry x="25" y="47" width="110" height="20" as="geometry" />
        </mxCell>
        <mxCell id="0hJVZdr-BbgBb25B6AkM-48" value="&lt;pre style=&quot;font-size: 12px; line-height: 16.25px; padding: 0 var(--jp-code-padding); color: rgb(33, 33, 33); text-align: start;&quot;&gt;&lt;pre style=&quot;font-weight: 400; line-height: 16.25px; padding: 0 var(--jp-code-padding); color: rgb(33, 33, 33); font-size: 13px;&quot;&gt;&lt;span class=&quot;n&quot;&gt;&lt;b&gt;upsample_concat_block&lt;/b&gt;&lt;/span&gt;&lt;/pre&gt;&lt;/pre&gt;" style="whiteSpace=wrap;html=1;rounded=1;fillColor=#f5f5f5;strokeColor=#666666;fontStyle=1;fontSize=10;gradientColor=#b3b3b3;" vertex="1" parent="0hJVZdr-BbgBb25B6AkM-41">
          <mxGeometry y="23" width="160" height="20" as="geometry" />
        </mxCell>
        <mxCell id="0hJVZdr-BbgBb25B6AkM-49" value="&lt;pre style=&quot;font-size: 12px; line-height: 16.25px; padding: 0 var(--jp-code-padding); color: rgb(33, 33, 33); text-align: start;&quot;&gt;&lt;span style=&quot;&quot; class=&quot;nf&quot;&gt;&lt;font style=&quot;font-size: 13px;&quot;&gt;Residual_block&lt;/font&gt;&lt;/span&gt;&lt;/pre&gt;" style="whiteSpace=wrap;html=1;rounded=1;fillColor=#cdeb8b;strokeColor=#36393d;fontStyle=1;fontSize=10;" vertex="1" parent="0hJVZdr-BbgBb25B6AkM-41">
          <mxGeometry x="25" width="110" height="20" as="geometry" />
        </mxCell>
        <mxCell id="0hJVZdr-BbgBb25B6AkM-50" value="" style="rounded=0;whiteSpace=wrap;html=1;fillColor=none;strokeColor=#FF0000;strokeWidth=1.4;dashed=1;" vertex="1" parent="0hJVZdr-BbgBb25B6AkM-39">
          <mxGeometry y="20" width="170" height="197" as="geometry" />
        </mxCell>
        <mxCell id="o_FSrOGJGpBzoUS4fE5v-4" value="&lt;font style=&quot;font-size: 12px; font-weight: normal;&quot;&gt;Conv2D (3x3)&lt;/font&gt;" style="whiteSpace=wrap;html=1;rounded=1;fillColor=#fff2cc;strokeColor=#d6b656;fontStyle=1;fontSize=10;" vertex="1" parent="1">
          <mxGeometry x="290" y="438.5" width="80" height="20" as="geometry" />
        </mxCell>
        <mxCell id="o_FSrOGJGpBzoUS4fE5v-6" value="&lt;font style=&quot;font-size: 12px; font-weight: normal;&quot;&gt;ReLU&lt;/font&gt;" style="whiteSpace=wrap;html=1;rounded=1;fillColor=#e1d5e7;strokeColor=#9673a6;fontStyle=1;fontSize=10;" vertex="1" parent="1">
          <mxGeometry x="290" y="484.5" width="80" height="20" as="geometry" />
        </mxCell>
        <mxCell id="o_FSrOGJGpBzoUS4fE5v-7" value="&lt;span style=&quot;font-weight: normal;&quot;&gt;&lt;font style=&quot;font-size: 12px;&quot;&gt;Batch Norm&lt;/font&gt;&lt;/span&gt;" style="whiteSpace=wrap;html=1;rounded=1;fillColor=#d5e8d4;strokeColor=#82b366;fontStyle=1;fontSize=10;" vertex="1" parent="1">
          <mxGeometry x="290" y="461.5" width="80" height="20" as="geometry" />
        </mxCell>
        <mxCell id="o_FSrOGJGpBzoUS4fE5v-12" value="&lt;font style=&quot;font-size: 12px; font-weight: normal;&quot;&gt;Output&lt;/font&gt;" style="rounded=1;whiteSpace=wrap;html=1;fillColor=#f5f5f5;fontColor=#333333;strokeColor=#666666;fontStyle=1;fontSize=10;" vertex="1" parent="1">
          <mxGeometry x="740" y="620" width="70" height="24" as="geometry" />
        </mxCell>
        <mxCell id="o_FSrOGJGpBzoUS4fE5v-30" value="&lt;pre style=&quot;line-height: 16.25px; padding: 0 var(--jp-code-padding); color: rgb(33, 33, 33); text-align: start;&quot;&gt;&lt;span class=&quot;nf&quot; style=&quot;&quot;&gt;&lt;font style=&quot;font-size: 13px;&quot;&gt;Residual_block&lt;/font&gt;&lt;/span&gt;&lt;/pre&gt;" style="text;html=1;align=center;verticalAlign=middle;whiteSpace=wrap;rounded=0;fontStyle=1" vertex="1" parent="1">
          <mxGeometry x="589" y="340" width="70" height="20" as="geometry" />
        </mxCell>
        <mxCell id="o_FSrOGJGpBzoUS4fE5v-31" style="edgeStyle=orthogonalEdgeStyle;curved=1;rounded=0;orthogonalLoop=1;jettySize=auto;html=1;exitX=0.5;exitY=0;exitDx=0;exitDy=0;startArrow=blockThin;startFill=1;endArrow=none;strokeWidth=1.3;" edge="1" parent="1" source="o_FSrOGJGpBzoUS4fE5v-32">
          <mxGeometry relative="1" as="geometry">
            <mxPoint x="630" y="369" as="targetPoint" />
          </mxGeometry>
        </mxCell>
        <mxCell id="o_FSrOGJGpBzoUS4fE5v-32" value="&lt;span style=&quot;font-size: 12px;&quot;&gt;&lt;b&gt;Conv_block&lt;/b&gt;&lt;/span&gt;" style="whiteSpace=wrap;html=1;rounded=1;fillColor=#b1ddf0;strokeColor=#10739e;fontStyle=0;fontSize=10;" vertex="1" parent="1">
          <mxGeometry x="590" y="396" width="80" height="20" as="geometry" />
        </mxCell>
        <mxCell id="o_FSrOGJGpBzoUS4fE5v-33" value="&lt;span style=&quot;font-size: 12px;&quot;&gt;&lt;b&gt;Conv_block&lt;/b&gt;&lt;/span&gt;" style="whiteSpace=wrap;html=1;rounded=1;fillColor=#b1ddf0;strokeColor=#10739e;fontStyle=0;fontSize=10;" vertex="1" parent="1">
          <mxGeometry x="590" y="419" width="80" height="20" as="geometry" />
        </mxCell>
        <mxCell id="o_FSrOGJGpBzoUS4fE5v-34" value="&lt;span style=&quot;font-weight: normal;&quot;&gt;&lt;font style=&quot;font-size: 12px;&quot;&gt;Conv&lt;/font&gt;&lt;/span&gt;" style="whiteSpace=wrap;html=1;rounded=1;fillColor=#e1d5e7;strokeColor=#9673a6;fontStyle=1;fontSize=10;" vertex="1" parent="1">
          <mxGeometry x="590" y="442" width="80" height="20" as="geometry" />
        </mxCell>
        <mxCell id="o_FSrOGJGpBzoUS4fE5v-35" value="&lt;span style=&quot;font-weight: normal;&quot;&gt;&lt;font style=&quot;font-size: 12px;&quot;&gt;BN&lt;/font&gt;&lt;/span&gt;" style="whiteSpace=wrap;html=1;rounded=1;fillColor=#fff2cc;strokeColor=#d6b656;fontStyle=1;fontSize=10;" vertex="1" parent="1">
          <mxGeometry x="590" y="465" width="80" height="20" as="geometry" />
        </mxCell>
        <mxCell id="o_FSrOGJGpBzoUS4fE5v-36" style="edgeStyle=orthogonalEdgeStyle;curved=1;rounded=0;orthogonalLoop=1;jettySize=auto;html=1;exitX=0.5;exitY=1;exitDx=0;exitDy=0;strokeWidth=1.3;endArrow=blockThin;startFill=0;startArrow=none;endFill=1;" edge="1" parent="1" source="o_FSrOGJGpBzoUS4fE5v-38">
          <mxGeometry relative="1" as="geometry">
            <mxPoint x="630" y="539" as="targetPoint" />
            <Array as="points">
              <mxPoint x="630" y="524" />
              <mxPoint x="650" y="524" />
              <mxPoint x="650" y="539" />
            </Array>
          </mxGeometry>
        </mxCell>
        <mxCell id="o_FSrOGJGpBzoUS4fE5v-37" style="edgeStyle=orthogonalEdgeStyle;curved=1;rounded=0;orthogonalLoop=1;jettySize=auto;html=1;exitX=0;exitY=0.5;exitDx=0;exitDy=0;strokeWidth=1.3;endArrow=none;startFill=1;startArrow=blockThin;" edge="1" parent="1" source="o_FSrOGJGpBzoUS4fE5v-38">
          <mxGeometry relative="1" as="geometry">
            <mxPoint x="630" y="379" as="targetPoint" />
            <Array as="points">
              <mxPoint x="570" y="498" />
              <mxPoint x="570" y="379" />
            </Array>
          </mxGeometry>
        </mxCell>
        <mxCell id="o_FSrOGJGpBzoUS4fE5v-38" value="&lt;span style=&quot;font-weight: normal;&quot;&gt;&lt;font style=&quot;font-size: 12px;&quot;&gt;Addition&lt;/font&gt;&lt;/span&gt;" style="whiteSpace=wrap;html=1;rounded=1;fillColor=#f5f5f5;strokeColor=#666666;fontStyle=1;fontSize=10;gradientColor=#b3b3b3;" vertex="1" parent="1">
          <mxGeometry x="590" y="488" width="80" height="20" as="geometry" />
        </mxCell>
        <mxCell id="o_FSrOGJGpBzoUS4fE5v-39" value="" style="rounded=0;whiteSpace=wrap;html=1;fillColor=none;strokeColor=light-dark(#da0b0b, #ededed);strokeWidth=1.4;dashed=1;" vertex="1" parent="1">
          <mxGeometry x="740" y="354.5" width="120" height="179" as="geometry" />
        </mxCell>
        <mxCell id="o_FSrOGJGpBzoUS4fE5v-52" value="&lt;span style=&quot;font-weight: normal;&quot;&gt;&lt;font style=&quot;font-size: 12px;&quot;&gt;ReLU&lt;/font&gt;&lt;/span&gt;" style="whiteSpace=wrap;html=1;rounded=1;fillColor=#e1d5e7;strokeColor=#9673a6;fontStyle=1;fontSize=10;" vertex="1" parent="1">
          <mxGeometry x="290" y="416.5" width="80" height="20" as="geometry" />
        </mxCell>
        <mxCell id="o_FSrOGJGpBzoUS4fE5v-53" value="&lt;font style=&quot;font-size: 12px; font-weight: normal;&quot;&gt;Batch Norm&lt;/font&gt;" style="whiteSpace=wrap;html=1;rounded=1;fillColor=#d5e8d4;strokeColor=#82b366;fontStyle=1;fontSize=10;" vertex="1" parent="1">
          <mxGeometry x="290" y="394.5" width="80" height="20" as="geometry" />
        </mxCell>
        <mxCell id="o_FSrOGJGpBzoUS4fE5v-54" value="&lt;font style=&quot;font-size: 12px; font-weight: normal;&quot;&gt;Conv2D (3x3)&lt;/font&gt;" style="whiteSpace=wrap;html=1;rounded=1;fillColor=#fff2cc;strokeColor=#d6b656;fontStyle=1;fontSize=10;" vertex="1" parent="1">
          <mxGeometry x="290" y="506.5" width="80" height="20" as="geometry" />
        </mxCell>
        <mxCell id="yvtHd8mW1o3Cz9XPWq4--13" style="edgeStyle=orthogonalEdgeStyle;rounded=0;orthogonalLoop=1;jettySize=auto;html=1;exitX=0.5;exitY=1;exitDx=0;exitDy=0;strokeWidth=1.4;" edge="1" parent="1" source="yvtHd8mW1o3Cz9XPWq4--3">
          <mxGeometry relative="1" as="geometry">
            <mxPoint x="330" y="570.5" as="targetPoint" />
          </mxGeometry>
        </mxCell>
        <mxCell id="yvtHd8mW1o3Cz9XPWq4--3" value="&lt;span style=&quot;font-weight: normal;&quot;&gt;&lt;font style=&quot;font-size: 12px;&quot;&gt;Addition&lt;/font&gt;&lt;/span&gt;" style="whiteSpace=wrap;html=1;rounded=1;fillColor=#f5f5f5;strokeColor=#666666;fontStyle=1;fontSize=10;gradientColor=#b3b3b3;" vertex="1" parent="1">
          <mxGeometry x="290" y="528.5" width="80" height="20" as="geometry" />
        </mxCell>
        <mxCell id="yvtHd8mW1o3Cz9XPWq4--4" value="" style="group" vertex="1" connectable="0" parent="1">
          <mxGeometry x="530" y="560" width="80" height="159" as="geometry" />
        </mxCell>
        <mxCell id="o_FSrOGJGpBzoUS4fE5v-2" value="" style="edgeStyle=orthogonalEdgeStyle;rounded=0;orthogonalLoop=1;jettySize=auto;html=1;fontSize=10;" edge="1" parent="yvtHd8mW1o3Cz9XPWq4--4" source="o_FSrOGJGpBzoUS4fE5v-3">
          <mxGeometry relative="1" as="geometry">
            <mxPoint x="40" y="44" as="targetPoint" />
          </mxGeometry>
        </mxCell>
        <mxCell id="o_FSrOGJGpBzoUS4fE5v-3" value="&lt;font&gt;Input&lt;/font&gt;" style="rounded=1;whiteSpace=wrap;html=1;fillColor=#f5f5f5;fontColor=#333333;strokeColor=#666666;" vertex="1" parent="yvtHd8mW1o3Cz9XPWq4--4">
          <mxGeometry x="5" width="70" height="24" as="geometry" />
        </mxCell>
        <mxCell id="o_FSrOGJGpBzoUS4fE5v-8" value="&lt;span style=&quot;font-weight: normal;&quot;&gt;&lt;font style=&quot;font-size: 12px;&quot;&gt;Conv2D (3x3)&lt;/font&gt;&lt;/span&gt;" style="whiteSpace=wrap;html=1;rounded=1;fillColor=#fff2cc;strokeColor=#d6b656;fontStyle=1;fontSize=10;" vertex="1" parent="yvtHd8mW1o3Cz9XPWq4--4">
          <mxGeometry y="46" width="80" height="20" as="geometry" />
        </mxCell>
        <mxCell id="o_FSrOGJGpBzoUS4fE5v-10" value="&lt;span style=&quot;font-weight: normal;&quot;&gt;&lt;font style=&quot;font-size: 12px;&quot;&gt;ReLU&lt;/font&gt;&lt;/span&gt;" style="whiteSpace=wrap;html=1;rounded=1;fillColor=#e1d5e7;strokeColor=#9673a6;fontStyle=1;fontSize=10;" vertex="1" parent="yvtHd8mW1o3Cz9XPWq4--4">
          <mxGeometry y="93" width="80" height="20" as="geometry" />
        </mxCell>
        <mxCell id="o_FSrOGJGpBzoUS4fE5v-11" value="&lt;font style=&quot;font-size: 12px; font-weight: normal;&quot;&gt;Batch Norm&lt;/font&gt;" style="whiteSpace=wrap;html=1;rounded=1;fillColor=#d5e8d4;strokeColor=#82b366;fontStyle=1;fontSize=10;" vertex="1" parent="yvtHd8mW1o3Cz9XPWq4--4">
          <mxGeometry y="70" width="80" height="20" as="geometry" />
        </mxCell>
        <mxCell id="o_FSrOGJGpBzoUS4fE5v-27" value="&lt;span style=&quot;font-weight: normal;&quot;&gt;&lt;font style=&quot;font-size: 12px;&quot;&gt;Conv2D (3x3)&lt;/font&gt;&lt;/span&gt;" style="whiteSpace=wrap;html=1;rounded=1;fillColor=#fff2cc;strokeColor=#d6b656;fontStyle=1;fontSize=10;" vertex="1" parent="yvtHd8mW1o3Cz9XPWq4--4">
          <mxGeometry y="116" width="80" height="20" as="geometry" />
        </mxCell>
        <mxCell id="o_FSrOGJGpBzoUS4fE5v-51" value="&lt;span style=&quot;font-weight: normal;&quot;&gt;&lt;font style=&quot;font-size: 12px;&quot;&gt;Addition&lt;/font&gt;&lt;/span&gt;" style="whiteSpace=wrap;html=1;rounded=1;fillColor=#f5f5f5;strokeColor=#666666;fontStyle=1;fontSize=10;gradientColor=#b3b3b3;" vertex="1" parent="yvtHd8mW1o3Cz9XPWq4--4">
          <mxGeometry y="139" width="80" height="20" as="geometry" />
        </mxCell>
        <mxCell id="0hJVZdr-BbgBb25B6AkM-33" value="&lt;pre style=&quot;font-size: 12px; line-height: 16.25px; padding: 0 var(--jp-code-padding); color: rgb(33, 33, 33); text-align: start;&quot;&gt;&lt;span style=&quot;&quot; class=&quot;nf&quot;&gt;&lt;font style=&quot;font-size: 13px;&quot;&gt;Residual_block&lt;/font&gt;&lt;/span&gt;&lt;/pre&gt;" style="whiteSpace=wrap;html=1;rounded=1;fillColor=#cdeb8b;strokeColor=#36393d;fontStyle=1;fontSize=10;" vertex="1" parent="1">
          <mxGeometry x="536" y="142" width="110" height="20" as="geometry" />
        </mxCell>
        <mxCell id="0hJVZdr-BbgBb25B6AkM-34" value="&lt;pre style=&quot;font-size: 12px; line-height: 16.25px; padding: 0 var(--jp-code-padding); color: rgb(33, 33, 33); text-align: start;&quot;&gt;&lt;span style=&quot;&quot; class=&quot;nf&quot;&gt;&lt;font style=&quot;font-size: 13px;&quot;&gt;Residual_block&lt;/font&gt;&lt;/span&gt;&lt;/pre&gt;" style="whiteSpace=wrap;html=1;rounded=1;fillColor=#cdeb8b;strokeColor=#36393d;fontStyle=1;fontSize=10;" vertex="1" parent="1">
          <mxGeometry x="536" y="166" width="110" height="20" as="geometry" />
        </mxCell>
        <mxCell id="0hJVZdr-BbgBb25B6AkM-35" value="&lt;pre style=&quot;font-size: 12px; line-height: 16.25px; padding: 0 var(--jp-code-padding); color: rgb(33, 33, 33); text-align: start;&quot;&gt;&lt;span style=&quot;&quot; class=&quot;nf&quot;&gt;&lt;font style=&quot;font-size: 13px;&quot;&gt;Residual_block&lt;/font&gt;&lt;/span&gt;&lt;/pre&gt;" style="whiteSpace=wrap;html=1;rounded=1;fillColor=#cdeb8b;strokeColor=#36393d;fontStyle=1;fontSize=10;" vertex="1" parent="1">
          <mxGeometry x="536" y="190" width="110" height="20" as="geometry" />
        </mxCell>
        <mxCell id="0hJVZdr-BbgBb25B6AkM-36" value="&lt;pre style=&quot;font-size: 12px; line-height: 16.25px; padding: 0 var(--jp-code-padding); color: rgb(33, 33, 33); text-align: start;&quot;&gt;&lt;span style=&quot;&quot; class=&quot;nf&quot;&gt;&lt;font style=&quot;font-size: 13px;&quot;&gt;Residual_block&lt;/font&gt;&lt;/span&gt;&lt;/pre&gt;" style="whiteSpace=wrap;html=1;rounded=1;fillColor=#cdeb8b;strokeColor=#36393d;fontStyle=1;fontSize=10;" vertex="1" parent="1">
          <mxGeometry x="536" y="214" width="110" height="20" as="geometry" />
        </mxCell>
        <mxCell id="0hJVZdr-BbgBb25B6AkM-37" value="&lt;span style=&quot;text-wrap-mode: nowrap; color: rgba(0, 0, 0, 0); font-family: monospace; font-size: 0px; text-align: start;&quot;&gt;%3CmxGraphModel%3E%3Croot%3E%3CmxCell%20id%3D%220%22%2F%3E%3CmxCell%20id%3D%221%22%20parent%3D%220%22%2F%3E%3CmxCell%20id%3D%222%22%20value%3D%22%22%20style%3D%22rounded%3D0%3BwhiteSpace%3Dwrap%3Bhtml%3D1%3BfillColor%3Dnone%3BstrokeWidth%3D1.4%3Bdashed%3D1%3BstrokeColor%3Dlight-dark(%23e60505%2C%20%23ededed)%3B%22%20vertex%3D%221%22%20parent%3D%221%22%3E%3CmxGeometry%20x%3D%2274%22%20y%3D%22654%22%20width%3D%22120%22%20height%3D%22102%22%20as%3D%22geometry%22%2F%3E%3C%2FmxCell%3E%3C%2Froot%3E%3C%2FmxGraphModel%3E&lt;/span&gt;&lt;span style=&quot;text-wrap-mode: nowrap; color: rgba(0, 0, 0, 0); font-family: monospace; font-size: 0px; text-align: start;&quot;&gt;%3CmxGraphModel%3E%3Croot%3E%3CmxCell%20id%3D%220%22%2F%3E%3CmxCell%20id%3D%221%22%20parent%3D%220%22%2F%3E%3CmxCell%20id%3D%222%22%20value%3D%22%22%20style%3D%22rounded%3D0%3BwhiteSpace%3Dwrap%3Bhtml%3D1%3BfillColor%3Dnone%3BstrokeWidth%3D1.4%3Bdashed%3D1%3BstrokeColor%3Dlight-dark(%23e60505%2C%20%23ededed)%3B%22%20vertex%3D%221%22%20parent%3D%221%22%3E%3CmxGeometry%20x%3D%2274%22%20y%3D%22654%22%20width%3D%22120%22%20height%3D%22102%22%20as%3D%22geometry%22%2F%3E%3C%2FmxCell%3E%3C%2Froot%3E%3C%2FmxGraphModel%3E&lt;/span&gt;&lt;span style=&quot;text-wrap-mode: nowrap; color: rgba(0, 0, 0, 0); font-family: monospace; font-size: 0px; text-align: start;&quot;&gt;%3CmxGraphModel%3E%3Croot%3E%3CmxCell%20id%3D%220%22%2F%3E%3CmxCell%20id%3D%221%22%20parent%3D%220%22%2F%3E%3CmxCell%20id%3D%222%22%20value%3D%22%22%20style%3D%22rounded%3D0%3BwhiteSpace%3Dwrap%3Bhtml%3D1%3BfillColor%3Dnone%3BstrokeWidth%3D1.4%3Bdashed%3D1%3BstrokeColor%3Dlight-dark(%23e60505%2C%20%23ededed)%3B%22%20vertex%3D%221%22%20parent%3D%221%22%3E%3CmxGeometry%20x%3D%2274%22%20y%3D%22654%22%20width%3D%22120%22%20height%3D%22102%22%20as%3D%22geometry%22%2F%3E%3C%2FmxCell%3E%3C%2Froot%3E%3C%2FmxGraphModel%3E&lt;/span&gt;&lt;span style=&quot;text-wrap-mode: nowrap; color: rgba(0, 0, 0, 0); font-family: monospace; font-size: 0px; text-align: start;&quot;&gt;%3CmxGraphModel%3E%3Croot%3E%3CmxCell%20id%3D%220%22%2F%3E%3CmxCell%20id%3D%221%22%20parent%3D%220%22%2F%3E%3CmxCell%20id%3D%222%22%20value%3D%22%22%20style%3D%22rounded%3D0%3BwhiteSpace%3Dwrap%3Bhtml%3D1%3BfillColor%3Dnone%3BstrokeWidth%3D1.4%3Bdashed%3D1%3BstrokeColor%3Dlight-dark(%23e60505%2C%20%23ededed)%3B%22%20vertex%3D%221%22%20parent%3D%221%22%3E%3CmxGeometry%20x%3D%2274%22%20y%3D%22654%22%20width%3D%22120%22%20height%3D%22102%22%20as%3D%22geometry%22%2F%3E%3C%2FmxCell%3E%3C%2Froot%3E%3C%2FmxGraphModel%3E&lt;/span&gt;&lt;span style=&quot;text-wrap-mode: nowrap; color: rgba(0, 0, 0, 0); font-family: monospace; font-size: 0px; text-align: start;&quot;&gt;%3CmxGraphModel%3E%3Croot%3E%3CmxCell%20id%3D%220%22%2F%3E%3CmxCell%20id%3D%221%22%20parent%3D%220%22%2F%3E%3CmxCell%20id%3D%222%22%20value%3D%22%22%20style%3D%22rounded%3D0%3BwhiteSpace%3Dwrap%3Bhtml%3D1%3BfillColor%3Dnone%3BstrokeWidth%3D1.4%3Bdashed%3D1%3BstrokeColor%3Dlight-dark(%23e60505%2C%20%23ededed)%3B%22%20vertex%3D%221%22%20parent%3D%221%22%3E%3CmxGeometry%20x%3D%2274%22%20y%3D%22654%22%20width%3D%22120%22%20height%3D%22102%22%20as%3D%22geometry%22%2F%3E%3C%2FmxCell%3E%3C%2Froot%3E%3C%2FmxGraphModel%3E&lt;/span&gt;&lt;span style=&quot;text-wrap-mode: nowrap; color: rgba(0, 0, 0, 0); font-family: monospace; font-size: 0px; text-align: start;&quot;&gt;%3CmxGraphModel%3E%3Croot%3E%3CmxCell%20id%3D%220%22%2F%3E%3CmxCell%20id%3D%221%22%20parent%3D%220%22%2F%3E%3CmxCell%20id%3D%222%22%20value%3D%22%22%20style%3D%22rounded%3D0%3BwhiteSpace%3Dwrap%3Bhtml%3D1%3BfillColor%3Dnone%3BstrokeWidth%3D1.4%3Bdashed%3D1%3BstrokeColor%3Dlight-dark(%23e60505%2C%20%23ededed)%3B%22%20vertex%3D%221%22%20parent%3D%221%22%3E%3CmxGeometry%20x%3D%2274%22%20y%3D%22654%22%20width%3D%22120%22%20height%3D%22102%22%20as%3D%22geometry%22%2F%3E%3C%2FmxCell%3E%3C%2Froot%3E%3C%2FmxGraphModel%3E&lt;/span&gt;" style="rounded=0;whiteSpace=wrap;html=1;fillColor=none;strokeWidth=1.4;dashed=1;strokeColor=light-dark(#e60505, #ededed);" vertex="1" parent="1">
          <mxGeometry x="530" y="136" width="120" height="102" as="geometry" />
        </mxCell>
        <mxCell id="0hJVZdr-BbgBb25B6AkM-38" value="&lt;pre style=&quot;line-height: 16.25px; padding: 0 var(--jp-code-padding); color: rgb(33, 33, 33); font-size: 13px; text-align: start;&quot;&gt;&lt;pre style=&quot;font-weight: 400; line-height: 16.25px; padding: 0 var(--jp-code-padding); color: rgb(33, 33, 33);&quot;&gt;&lt;span style=&quot;color: var(--jp-mirror-editor-comment-color);&quot; class=&quot;c1&quot;&gt;&lt;b&gt;Encoder&lt;/b&gt;&lt;/span&gt;&lt;/pre&gt;&lt;/pre&gt;" style="text;html=1;align=center;verticalAlign=middle;whiteSpace=wrap;rounded=0;fontStyle=1" vertex="1" parent="1">
          <mxGeometry x="556" y="116" width="70" height="20" as="geometry" />
        </mxCell>
        <mxCell id="yvtHd8mW1o3Cz9XPWq4--8" value="&lt;pre style=&quot;font-size: 12px; line-height: 16.25px; padding: 0 var(--jp-code-padding); color: rgb(33, 33, 33); text-align: start;&quot;&gt;&lt;span style=&quot;&quot; class=&quot;nf&quot;&gt;&lt;font style=&quot;font-size: 13px;&quot;&gt;Squeeze &amp;amp; Excite&lt;/font&gt;&lt;/span&gt;&lt;/pre&gt;" style="whiteSpace=wrap;html=1;rounded=1;fillColor=#cdeb8b;strokeColor=#36393d;fontStyle=1;fontSize=10;" vertex="1" parent="1">
          <mxGeometry x="284" y="320" width="123" height="20" as="geometry" />
        </mxCell>
        <mxCell id="yvtHd8mW1o3Cz9XPWq4--16" value="" style="group" vertex="1" connectable="0" parent="1">
          <mxGeometry x="-60" y="128" width="90" height="96" as="geometry" />
        </mxCell>
        <mxCell id="0hJVZdr-BbgBb25B6AkM-2" value="" style="group" vertex="1" connectable="0" parent="yvtHd8mW1o3Cz9XPWq4--16">
          <mxGeometry x="5" y="24" width="80" height="68" as="geometry" />
        </mxCell>
        <mxCell id="0hJVZdr-BbgBb25B6AkM-3" value="&lt;span style=&quot;font-size: 12px; font-weight: 400;&quot;&gt;Batch Norm&lt;/span&gt;" style="whiteSpace=wrap;html=1;rounded=1;fillColor=#fff2cc;strokeColor=#d6b656;fontStyle=1;fontSize=10;" vertex="1" parent="0hJVZdr-BbgBb25B6AkM-2">
          <mxGeometry width="80" height="20" as="geometry" />
        </mxCell>
        <mxCell id="0hJVZdr-BbgBb25B6AkM-4" value="&lt;span style=&quot;font-weight: normal;&quot;&gt;&lt;font style=&quot;font-size: 12px;&quot;&gt;Conv&lt;/font&gt;&lt;/span&gt;" style="whiteSpace=wrap;html=1;rounded=1;fillColor=#e1d5e7;strokeColor=#9673a6;fontStyle=1;fontSize=10;" vertex="1" parent="0hJVZdr-BbgBb25B6AkM-2">
          <mxGeometry y="48" width="80" height="20" as="geometry" />
        </mxCell>
        <mxCell id="0hJVZdr-BbgBb25B6AkM-5" value="&lt;font style=&quot;font-size: 12px; font-weight: normal;&quot;&gt;ReLU&lt;/font&gt;" style="whiteSpace=wrap;html=1;rounded=1;fillColor=#d5e8d4;strokeColor=#82b366;fontStyle=1;fontSize=10;" vertex="1" parent="0hJVZdr-BbgBb25B6AkM-2">
          <mxGeometry y="24" width="80" height="20" as="geometry" />
        </mxCell>
        <mxCell id="0hJVZdr-BbgBb25B6AkM-6" value="Conv block" style="text;html=1;align=center;verticalAlign=middle;whiteSpace=wrap;rounded=0;fontStyle=1" vertex="1" parent="yvtHd8mW1o3Cz9XPWq4--16">
          <mxGeometry x="8" width="70" height="20" as="geometry" />
        </mxCell>
        <mxCell id="0hJVZdr-BbgBb25B6AkM-7" value="" style="rounded=0;whiteSpace=wrap;html=1;fillColor=none;strokeColor=#FF0000;dashed=1;strokeWidth=1.4;" vertex="1" parent="yvtHd8mW1o3Cz9XPWq4--16">
          <mxGeometry y="18" width="90" height="78" as="geometry" />
        </mxCell>
        <mxCell id="yvtHd8mW1o3Cz9XPWq4--18" value="" style="group" vertex="1" connectable="0" parent="1">
          <mxGeometry x="40" y="138" width="91.5" height="79" as="geometry" />
        </mxCell>
        <mxCell id="yvtHd8mW1o3Cz9XPWq4--5" value="&lt;font style=&quot;font-size: 12px; font-weight: normal;&quot;&gt;Conv2D (1x1)&lt;/font&gt;" style="whiteSpace=wrap;html=1;rounded=1;fillColor=#fff2cc;strokeColor=#d6b656;fontStyle=1;fontSize=10;" vertex="1" parent="yvtHd8mW1o3Cz9XPWq4--18">
          <mxGeometry x="6" y="31" width="80" height="20" as="geometry" />
        </mxCell>
        <mxCell id="yvtHd8mW1o3Cz9XPWq4--6" value="&lt;span style=&quot;font-weight: normal;&quot;&gt;&lt;font style=&quot;font-size: 12px;&quot;&gt;Batch Norm&lt;/font&gt;&lt;/span&gt;" style="whiteSpace=wrap;html=1;rounded=1;fillColor=#d5e8d4;strokeColor=#82b366;fontStyle=1;fontSize=10;" vertex="1" parent="yvtHd8mW1o3Cz9XPWq4--18">
          <mxGeometry x="6" y="54" width="80" height="20" as="geometry" />
        </mxCell>
        <mxCell id="yvtHd8mW1o3Cz9XPWq4--11" value="Shortcut" style="text;html=1;align=center;verticalAlign=middle;whiteSpace=wrap;rounded=0;fontStyle=1" vertex="1" parent="yvtHd8mW1o3Cz9XPWq4--18">
          <mxGeometry x="17" width="60" height="33" as="geometry" />
        </mxCell>
        <mxCell id="yvtHd8mW1o3Cz9XPWq4--12" value="" style="rounded=0;whiteSpace=wrap;html=1;fillColor=none;strokeColor=light-dark(#da0b0b, #ededed);strokeWidth=1.4;dashed=1;" vertex="1" parent="yvtHd8mW1o3Cz9XPWq4--18">
          <mxGeometry y="26" width="91.5" height="53" as="geometry" />
        </mxCell>
        <mxCell id="0hJVZdr-BbgBb25B6AkM-18" value="" style="rounded=0;whiteSpace=wrap;html=1;fillColor=none;strokeColor=light-dark(#da0b0b, #ededed);strokeWidth=1.4;dashed=1;" vertex="1" parent="1">
          <mxGeometry x="870" y="161" width="120" height="179" as="geometry" />
        </mxCell>
        <mxCell id="yvtHd8mW1o3Cz9XPWq4--23" value="" style="group" vertex="1" connectable="0" parent="1">
          <mxGeometry x="139" y="88" width="100" height="162" as="geometry" />
        </mxCell>
        <mxCell id="yvtHd8mW1o3Cz9XPWq4--20" style="edgeStyle=orthogonalEdgeStyle;rounded=0;orthogonalLoop=1;jettySize=auto;html=1;entryX=0;entryY=0.5;entryDx=0;entryDy=0;" edge="1" parent="yvtHd8mW1o3Cz9XPWq4--23" target="0hJVZdr-BbgBb25B6AkM-17">
          <mxGeometry relative="1" as="geometry">
            <mxPoint x="57" y="32" as="sourcePoint" />
            <Array as="points">
              <mxPoint x="5" y="32" />
              <mxPoint x="5" y="124" />
            </Array>
          </mxGeometry>
        </mxCell>
        <mxCell id="0hJVZdr-BbgBb25B6AkM-9" value="&lt;pre style=&quot;line-height: 16.25px; padding: 0 var(--jp-code-padding); color: rgb(33, 33, 33); text-align: start;&quot;&gt;&lt;span class=&quot;nf&quot; style=&quot;&quot;&gt;&lt;font style=&quot;font-size: 13px;&quot;&gt;Residual block&lt;/font&gt;&lt;/span&gt;&lt;/pre&gt;" style="text;html=1;align=center;verticalAlign=middle;whiteSpace=wrap;rounded=0;fontStyle=1" vertex="1" parent="yvtHd8mW1o3Cz9XPWq4--23">
          <mxGeometry x="16" width="70" height="20" as="geometry" />
        </mxCell>
        <mxCell id="0hJVZdr-BbgBb25B6AkM-10" style="edgeStyle=orthogonalEdgeStyle;curved=1;rounded=0;orthogonalLoop=1;jettySize=auto;html=1;exitX=0.5;exitY=0;exitDx=0;exitDy=0;startArrow=blockThin;startFill=1;endArrow=none;strokeWidth=1.3;" edge="1" parent="yvtHd8mW1o3Cz9XPWq4--23" source="0hJVZdr-BbgBb25B6AkM-11">
          <mxGeometry relative="1" as="geometry">
            <mxPoint x="57" y="19" as="targetPoint" />
          </mxGeometry>
        </mxCell>
        <mxCell id="0hJVZdr-BbgBb25B6AkM-11" value="&lt;span style=&quot;font-size: 12px;&quot;&gt;&lt;b&gt;Conv_block&lt;/b&gt;&lt;/span&gt;" style="whiteSpace=wrap;html=1;rounded=1;fillColor=#b1ddf0;strokeColor=#10739e;fontStyle=0;fontSize=10;" vertex="1" parent="yvtHd8mW1o3Cz9XPWq4--23">
          <mxGeometry x="17" y="46" width="80" height="20" as="geometry" />
        </mxCell>
        <mxCell id="0hJVZdr-BbgBb25B6AkM-12" value="&lt;span style=&quot;font-size: 12px;&quot;&gt;&lt;b&gt;Conv_block&lt;/b&gt;&lt;/span&gt;" style="whiteSpace=wrap;html=1;rounded=1;fillColor=#b1ddf0;strokeColor=#10739e;fontStyle=0;fontSize=10;" vertex="1" parent="yvtHd8mW1o3Cz9XPWq4--23">
          <mxGeometry x="17" y="69" width="80" height="20" as="geometry" />
        </mxCell>
        <mxCell id="0hJVZdr-BbgBb25B6AkM-13" value="&lt;span style=&quot;font-weight: normal;&quot;&gt;&lt;font style=&quot;font-size: 12px;&quot;&gt;Shortcut&lt;/font&gt;&lt;/span&gt;" style="whiteSpace=wrap;html=1;rounded=1;fillColor=#e1d5e7;strokeColor=#9673a6;fontStyle=1;fontSize=10;" vertex="1" parent="yvtHd8mW1o3Cz9XPWq4--23">
          <mxGeometry x="17" y="92" width="80" height="20" as="geometry" />
        </mxCell>
        <mxCell id="0hJVZdr-BbgBb25B6AkM-15" style="edgeStyle=orthogonalEdgeStyle;curved=1;rounded=0;orthogonalLoop=1;jettySize=auto;html=1;exitX=0.5;exitY=1;exitDx=0;exitDy=0;strokeWidth=1.3;endArrow=blockThin;startFill=0;startArrow=none;endFill=1;" edge="1" parent="yvtHd8mW1o3Cz9XPWq4--23" source="0hJVZdr-BbgBb25B6AkM-17">
          <mxGeometry relative="1" as="geometry">
            <mxPoint x="57" y="162" as="targetPoint" />
            <Array as="points">
              <mxPoint x="57" y="152" />
              <mxPoint x="57" y="152" />
            </Array>
          </mxGeometry>
        </mxCell>
        <mxCell id="0hJVZdr-BbgBb25B6AkM-17" value="&lt;span style=&quot;font-weight: normal;&quot;&gt;&lt;font style=&quot;font-size: 12px;&quot;&gt;Addition&lt;/font&gt;&lt;/span&gt;" style="whiteSpace=wrap;html=1;rounded=1;fillColor=#f5f5f5;strokeColor=#666666;fontStyle=1;fontSize=10;gradientColor=#b3b3b3;" vertex="1" parent="yvtHd8mW1o3Cz9XPWq4--23">
          <mxGeometry x="17" y="114" width="80" height="20" as="geometry" />
        </mxCell>
        <mxCell id="yvtHd8mW1o3Cz9XPWq4--21" value="" style="rounded=0;whiteSpace=wrap;html=1;fillColor=none;strokeColor=light-dark(#da0b0b, #ededed);strokeWidth=1.4;dashed=1;" vertex="1" parent="yvtHd8mW1o3Cz9XPWq4--23">
          <mxGeometry y="21" width="100" height="141" as="geometry" />
        </mxCell>
        <mxCell id="yvtHd8mW1o3Cz9XPWq4--24" value="&lt;span style=&quot;font-size: 12px;&quot;&gt;&lt;b&gt;Conv_block&lt;/b&gt;&lt;/span&gt;" style="whiteSpace=wrap;html=1;rounded=1;fillColor=#b1ddf0;strokeColor=#10739e;fontStyle=0;fontSize=10;" vertex="1" parent="1">
          <mxGeometry x="-30" y="340" width="80" height="20" as="geometry" />
        </mxCell>
        <mxCell id="yvtHd8mW1o3Cz9XPWq4--30" style="edgeStyle=orthogonalEdgeStyle;rounded=0;orthogonalLoop=1;jettySize=auto;html=1;exitX=0.5;exitY=1;exitDx=0;exitDy=0;entryX=0.5;entryY=0;entryDx=0;entryDy=0;" edge="1" parent="1" source="yvtHd8mW1o3Cz9XPWq4--25" target="yvtHd8mW1o3Cz9XPWq4--27">
          <mxGeometry relative="1" as="geometry">
            <Array as="points">
              <mxPoint x="10" y="390" />
              <mxPoint x="70" y="390" />
            </Array>
          </mxGeometry>
        </mxCell>
        <mxCell id="yvtHd8mW1o3Cz9XPWq4--25" value="&lt;font style=&quot;font-size: 12px;&quot;&gt;MaxPooling2D&lt;/font&gt;" style="whiteSpace=wrap;html=1;rounded=1;fillColor=#fff2cc;strokeColor=#d6b656;fontStyle=0;fontSize=10;" vertex="1" parent="1">
          <mxGeometry x="-30" y="363" width="80" height="20" as="geometry" />
        </mxCell>
        <mxCell id="yvtHd8mW1o3Cz9XPWq4--28" style="edgeStyle=orthogonalEdgeStyle;rounded=0;orthogonalLoop=1;jettySize=auto;html=1;exitX=0.5;exitY=1;exitDx=0;exitDy=0;entryX=0.5;entryY=0;entryDx=0;entryDy=0;" edge="1" parent="1">
          <mxGeometry relative="1" as="geometry">
            <mxPoint x="99" y="359" as="sourcePoint" />
            <mxPoint x="70" y="414" as="targetPoint" />
            <Array as="points">
              <mxPoint x="99" y="390" />
              <mxPoint x="70" y="390" />
            </Array>
          </mxGeometry>
        </mxCell>
        <mxCell id="yvtHd8mW1o3Cz9XPWq4--26" value="&lt;span style=&quot;font-size: 12px;&quot;&gt;&lt;b&gt;Conv_block&lt;/b&gt;&lt;/span&gt;" style="whiteSpace=wrap;html=1;rounded=1;fillColor=#b1ddf0;strokeColor=#10739e;fontStyle=0;fontSize=10;" vertex="1" parent="1">
          <mxGeometry x="59" y="340" width="80" height="20" as="geometry" />
        </mxCell>
        <mxCell id="yvtHd8mW1o3Cz9XPWq4--27" value="&lt;span style=&quot;font-weight: normal;&quot;&gt;&lt;font style=&quot;font-size: 12px;&quot;&gt;Addition&lt;/font&gt;&lt;/span&gt;" style="whiteSpace=wrap;html=1;rounded=1;fillColor=#f5f5f5;strokeColor=#666666;fontStyle=1;fontSize=10;gradientColor=#b3b3b3;" vertex="1" parent="1">
          <mxGeometry x="30" y="415" width="80" height="20" as="geometry" />
        </mxCell>
        <mxCell id="yvtHd8mW1o3Cz9XPWq4--31" value="&lt;span style=&quot;font-size: 12px;&quot;&gt;&lt;b&gt;Conv_block&lt;/b&gt;&lt;/span&gt;" style="whiteSpace=wrap;html=1;rounded=1;fillColor=#b1ddf0;strokeColor=#10739e;fontStyle=0;fontSize=10;" vertex="1" parent="1">
          <mxGeometry x="30" y="438" width="80" height="20" as="geometry" />
        </mxCell>
        <mxCell id="yvtHd8mW1o3Cz9XPWq4--33" value="&lt;span style=&quot;font-weight: normal;&quot;&gt;&lt;font style=&quot;font-size: 12px;&quot;&gt;Addition&lt;/font&gt;&lt;/span&gt;" style="whiteSpace=wrap;html=1;rounded=1;fillColor=#f5f5f5;strokeColor=#666666;fontStyle=1;fontSize=10;gradientColor=#b3b3b3;" vertex="1" parent="1">
          <mxGeometry x="30" y="460.5" width="80" height="20" as="geometry" />
        </mxCell>
        <mxCell id="yvtHd8mW1o3Cz9XPWq4--34" value="Attetion block" style="text;html=1;align=center;verticalAlign=middle;whiteSpace=wrap;rounded=0;fontStyle=1" vertex="1" parent="1">
          <mxGeometry x="25" y="277" width="90" height="20" as="geometry" />
        </mxCell>
      </root>
    </mxGraphModel>
  </diagram>
</mxfile>
